<?xml version="1.0" encoding="UTF-8" standalone="no"?>
<!-- Generator: Adobe Illustrator 14.0.0, SVG Export Plug-In . SVG Version: 6.00 Build 43363)  -->

<svg
   xmlns:dc="http://purl.org/dc/elements/1.1/"
   xmlns:cc="http://creativecommons.org/ns#"
   xmlns:rdf="http://www.w3.org/1999/02/22-rdf-syntax-ns#"
   xmlns:svg="http://www.w3.org/2000/svg"
   xmlns="http://www.w3.org/2000/svg"
   xmlns:xlink="http://www.w3.org/1999/xlink"
   xmlns:sodipodi="http://sodipodi.sourceforge.net/DTD/sodipodi-0.dtd"
   xmlns:inkscape="http://www.inkscape.org/namespaces/inkscape"
   id="Layer_2"
   enable-background="new 0 0 252.606 209.005"
   xml:space="preserve"
   viewBox="0 0 512.00002 511.99998"
   version="1.1"
   y="0px"
   x="0px"
   sodipodi:docname="Manuscript projet file.svg"
   width="512"
   height="512"
   inkscape:version="0.92.4 (5da689c313, 2019-01-14)"><defs
     id="defs3083"><inkscape:path-effect
       cusp_linecap_type="round"
       end_linecap_type="zerowidth"
       miter_limit="4"
       linejoin_type="round"
       start_linecap_type="zerowidth"
       interpolator_beta="0.2"
       interpolator_type="Linear"
       sort_points="true"
       offset_points="0,0.5"
       is_visible="true"
       id="path-effect4151"
       effect="powerstroke" /></defs><sodipodi:namedview
     pagecolor="#ffffff"
     bordercolor="#666666"
     borderopacity="1"
     objecttolerance="10"
     gridtolerance="10"
     guidetolerance="10"
     inkscape:pageopacity="0"
     inkscape:pageshadow="2"
     inkscape:window-width="1920"
     inkscape:window-height="1017"
     id="namedview3081"
     showgrid="false"
     units="px"
     inkscape:zoom="1.1291596"
     inkscape:cx="104.65168"
     inkscape:cy="242.0507"
     inkscape:window-x="1352"
     inkscape:window-y="-8"
     inkscape:window-maximized="1"
     inkscape:current-layer="g895"
     inkscape:pagecheckerboard="true"
     showguides="true"
     inkscape:guide-bbox="true"
     borderlayer="false"><sodipodi:guide
       position="-3.1742238e-06,512"
       orientation="0.64278761,0.76604444"
       id="guide843"
       inkscape:locked="false"
       inkscape:label=""
       inkscape:color="rgb(0,0,255)" /><sodipodi:guide
       position="15,512"
       orientation="1,0"
       id="guide845"
       inkscape:locked="false"
       inkscape:label=""
       inkscape:color="rgb(0,0,255)" /><sodipodi:guide
       position="0,512"
       orientation="0,1"
       id="guide847"
       inkscape:locked="false"
       inkscape:label=""
       inkscape:color="rgb(0,0,255)" /><sodipodi:guide
       position="30,512"
       orientation="1,0"
       id="guide849"
       inkscape:locked="false"
       inkscape:label=""
       inkscape:color="rgb(0,0,255)" /><sodipodi:guide
       position="0,494.16083"
       orientation="1,0"
       id="guide851"
       inkscape:locked="false"
       inkscape:label=""
       inkscape:color="rgb(0,0,255)" /><sodipodi:guide
       position="45,512"
       orientation="1,0"
       id="guide853"
       inkscape:locked="false"
       inkscape:label=""
       inkscape:color="rgb(0,0,255)" /><sodipodi:guide
       position="60,512"
       orientation="1,0"
       id="guide855"
       inkscape:locked="false"
       inkscape:label=""
       inkscape:color="rgb(0,0,255)" /><sodipodi:guide
       position="75,511.99998"
       orientation="1,0"
       id="guide857"
       inkscape:locked="false"
       inkscape:label=""
       inkscape:color="rgb(0,0,255)" /></sodipodi:namedview><metadata
     id="metadata3078"><rdf:RDF><cc:Work><dc:format>image/svg+xml</dc:format><dc:type
           rdf:resource="http://purl.org/dc/dcmitype/StillImage" /><cc:license
           rdf:resource="http://creativecommons.org/publicdomain/zero/1.0/" /><dc:publisher><cc:Agent
             rdf:about="http://openclipart.org/"><dc:title>Openclipart</dc:title></cc:Agent></dc:publisher><dc:title>manuscript/manuscrit</dc:title><dc:date>2011-04-29T14:18:25</dc:date><dc:description>piles de papiers, manuscrit, stack of papers, manuscript</dc:description><dc:source>https://openclipart.org/detail/134683/manuscriptmanuscrit-by-palimpsest</dc:source><dc:creator><cc:Agent><dc:title>palimpsest</dc:title></cc:Agent></dc:creator><dc:subject><rdf:Bag><rdf:li>book</rdf:li><rdf:li>feuilles</rdf:li><rdf:li>free</rdf:li><rdf:li>manuscrit</rdf:li><rdf:li>novel</rdf:li><rdf:li>open clip art</rdf:li><rdf:li>papers</rdf:li><rdf:li>papiers</rdf:li><rdf:li>pile</rdf:li><rdf:li>sheets</rdf:li><rdf:li>stack</rdf:li><rdf:li>writing</rdf:li><rdf:li>écrit</rdf:li></rdf:Bag></dc:subject></cc:Work><cc:License
         rdf:about="http://creativecommons.org/publicdomain/zero/1.0/"><cc:permits
           rdf:resource="http://creativecommons.org/ns#Reproduction" /><cc:permits
           rdf:resource="http://creativecommons.org/ns#Distribution" /><cc:permits
           rdf:resource="http://creativecommons.org/ns#DerivativeWorks" /></cc:License></rdf:RDF></metadata><g
     id="g892"
     inkscape:label="Manuskript logo file"
     transform="matrix(0.36682512,0,0,0.36682512,121.2286,50.066442)"><use
       x="0"
       y="0"
       xlink:href="#g895"
       id="use906"
       width="100%"
       height="100%"
       transform="translate(215.81082,181.08678)" /><use
       x="0"
       y="0"
       xlink:href="#g895"
       id="use888"
       width="100%"
       height="100%"
       transform="translate(172.64865,144.86942)" /><use
       x="0"
       y="0"
       xlink:href="#g895"
       id="use886"
       width="100%"
       height="100%"
       transform="translate(129.48649,108.65207)" /><use
       x="0"
       y="0"
       xlink:href="#g895"
       id="use890"
       width="100%"
       height="100%"
       transform="translate(86.324332,72.434715)" /><use
       x="0"
       y="0"
       xlink:href="#g895"
       id="use892"
       width="100%"
       height="100%"
       transform="translate(43.16217,36.217361)" /><g
       id="g895"
       inkscape:label="paper"
       transform="matrix(1.0687631,0,0,1.0687631,1452.2208,-54.041121)"><rect
         y="-70.140327"
         x="-1518.165"
         height="1122.5228"
         width="793.703"
         id="rect843"
         style="opacity:1;fill:#ffffff;fill-opacity:1;stroke:#000000;stroke-width:14.00004005;stroke-linecap:square;stroke-linejoin:miter;stroke-miterlimit:4;stroke-dasharray:none;stroke-dashoffset:0;stroke-opacity:1"
         inkscape:label="A4" /><flowRoot
         xml:space="preserve"
         id="flowRoot957"
         style="font-style:normal;font-variant:normal;font-weight:normal;font-stretch:normal;font-size:110px;line-height:120.00000477%;font-family:Z003;-inkscape-font-specification:Z003;text-indent:1em;text-align:justify;letter-spacing:0px;word-spacing:0px;text-anchor:start;display:none;fill:#000000;fill-opacity:1;stroke:none;stroke-width:1px;stroke-linecap:butt;stroke-linejoin:miter;stroke-opacity:1"
         inkscape:label="Lorem"
         transform="translate(462.47107,181.39007)"><flowRegion
           id="flowRegion959"
           style="font-style:normal;font-variant:normal;font-weight:normal;font-stretch:normal;font-family:Z003;-inkscape-font-specification:Z003;text-indent:1em;text-align:justify;text-anchor:start"><rect
             id="rect961"
             width="699.36609"
             height="1087.5219"
             x="-1941.2668"
             y="-220.07179"
             style="font-style:normal;font-variant:normal;font-weight:normal;font-stretch:normal;font-family:Z003;-inkscape-font-specification:Z003;text-align:justify;text-anchor:start" /></flowRegion><flowPara
           id="flowPara963">Manuskript lorem ipsum dolor sit amet, consectetur adipiscing elit.</flowPara><flowPara
           id="flowPara877">Sed non risus.</flowPara><flowPara
           id="flowPara971">Suspendisse lectus ate tortor, dignissim samet. adipiscingne.</flowPara></flowRoot><g
         aria-label="Manuskript lorem ipsum dolor sit amet, consectetur adipiscing elit.
Sed non risus.
Suspendisse lectus ate tortor, dignissim samet. "
         transform="translate(462.47107,181.39007)"
         style="font-style:normal;font-variant:normal;font-weight:normal;font-stretch:normal;font-size:110px;line-height:120.00000477%;font-family:Z003;-inkscape-font-specification:Z003;text-indent:1em;text-align:justify;letter-spacing:0px;word-spacing:0px;text-anchor:start;fill:#000000;fill-opacity:1;stroke:none;stroke-width:1px;stroke-linecap:butt;stroke-linejoin:miter;stroke-opacity:1"
         id="flowRoot869"
         inkscape:label="Lorem path"><path
           d="m -1934.8876,-134.60226 c 1.98,0.11 3.63,0.11 4.73,0.11 8.58,0 14.19,-2.53 19.03,-8.36 3.52,-4.51 4.84,-7.26 7.48,-16.28 1.21,-4.4 5.28,-19.25 7.15,-26.95 3.85,39.6 3.96,40.59 4.18,49.39 l 5.39,-4.18 c 3.63,-8.03 11.22,-19.8 29.37,-45.54 -0.33,1.65 -0.66,3.19 -1.1,4.84 -0.33,1.65 -1.21,4.95 -2.53,9.79 -6.38,23.76 -7.7,28.82 -7.92,29.37 -0.88,2.53 -1.43,4.84 -1.43,6.38 0,1.65 1.21,2.86 2.64,2.86 0.55,0 1.32,-0.11 2.09,-0.22 2.2,-0.44 8.69,-1.54 10.34,-1.76 l 5.17,-0.66 c 0.33,-0.11 1.21,-0.22 2.64,-0.44 l 2.31,-2.75 c -1.87,0.11 -3.3,0.22 -4.18,0.33 -1.87,0.11 -3.63,0.22 -4.51,0.22 -3.52,0 -5.5,-1.65 -5.5,-4.4 0,-3.08 0,-3.08 5.72,-26.29 2.86,-11.88 5.61,-21.45 8.47,-29.92 0.88,-2.64 1.76,-3.41 3.74,-3.41 0.99,0 2.42,0.11 3.85,0.44 0.44,0.11 1.65,0.33 2.97,0.55 l 4.51,-6.16 c -1.98,-0.55 -2.97,-0.66 -4.4,-0.66 -2.42,0 -4.18,0.44 -7.15,1.98 -4.84,2.42 -8.47,5.06 -10.56,7.59 -1.32,1.76 -1.32,1.76 -17.6,24.42 -4.18,5.94 -8.25,11.99 -12.43,18.04 l -2.75,3.96 c -1.43,-16.72 -4.29,-41.03 -5.72,-48.73 l -3.41,2.75 c -4.18,-0.55 -6.27,-0.66 -8.91,-0.66 -7.37,0 -11.77,1.87 -16.94,7.26 -5.94,6.05 -9.46,12.98 -9.46,18.59 0,3.19 0.66,5.94 2.53,10.12 l 8.36,-5.83 c -2.64,-5.61 -3.52,-8.36 -3.52,-11.66 0,-7.15 5.39,-11.11 14.96,-11.11 2.64,0 4.29,0.11 7.92,0.66 -4.84,19.69 -10.78,40.26 -12.65,43.78 -2.2,3.85 -4.95,5.5 -9.68,5.5 -1.87,0 -2.53,0 -8.14,-0.55 z"
           id="path871"
           inkscape:connector-curvature="0" /><path
           d="m -1794.7648,-149.01226 c -8.03,5.5 -9.9,6.6 -11,6.6 -0.77,0 -1.32,-0.88 -1.32,-2.2 0,-2.97 2.53,-14.52 6.6,-29.59 1.21,-1.76 1.43,-1.98 3.19,-3.96 -5.28,-1.21 -9.02,-1.65 -13.86,-1.65 -4.51,0 -6.71,0.44 -9.46,2.2 -3.96,2.31 -8.58,5.72 -10.01,7.26 -4.18,4.62 -8.69,19.47 -8.69,28.38 0,5.28 1.76,8.8 4.51,8.8 2.42,0 6.05,-2.2 19.8,-12.1 -1.21,5.61 -1.65,8.36 -1.65,9.79 0,1.54 0.66,2.31 1.76,2.31 1.43,0 2.31,-0.44 10.12,-5.61 3.74,-2.53 5.83,-3.96 9.9,-6.93 z m -19.36,-0.77 c -3.85,2.86 -5.83,4.29 -5.94,4.4 -3.63,2.31 -6.49,3.74 -7.92,3.74 -1.87,0 -2.86,-1.98 -2.86,-5.5 0,-5.61 1.65,-12.87 4.51,-19.25 2.64,-6.05 5.06,-8.36 8.8,-8.36 1.98,0 5.72,0.55 9.35,1.43 -2.2,7.92 -2.97,10.89 -3.08,11.44 -0.66,2.75 -1.21,5.5 -1.87,8.36 -0.11,0.55 -0.44,1.87 -0.99,3.74 z"
           id="path873"
           inkscape:connector-curvature="0" /><path
           d="m -1784.6534,-136.69226 6.49,-25.85 2.75,-1.76 c 10.23,-6.38 11.44,-7.04 12.98,-7.04 0.66,0 1.1,0.55 1.1,1.43 0,1.76 -0.77,4.95 -4.07,18.37 -2.42,9.68 -2.86,11.66 -2.86,13.75 0,1.54 0.44,2.86 1.65,4.95 4.95,-2.2 12.65,-7.04 20.35,-12.76 l 0.77,-3.08 c -10.67,6.16 -11.44,6.49 -12.54,6.49 -1.1,0 -1.76,-1.1 -1.76,-2.97 0,-2.97 0.44,-4.84 5.28,-22.33 2.75,-9.79 2.75,-9.79 2.75,-10.45 0,-1.21 -0.77,-1.87 -2.09,-1.87 -2.42,0 -2.75,0.22 -14.63,7.48 -4.4,2.75 -7.26,4.51 -8.58,5.39 1.1,-3.85 2.64,-10.56 2.64,-11.44 0,-0.88 -0.55,-1.43 -1.43,-1.43 -1.21,0 -8.69,3.85 -17.27,8.91 l -0.66,2.86 c 7.04,-3.19 7.48,-3.3 8.47,-3.3 0.77,0 1.32,0.66 1.32,1.54 0,2.42 -1.98,11.22 -4.84,21.45 l -2.53,8.91 c -0.22,0.77 -0.77,2.86 -1.54,5.94 z"
           id="path875"
           inkscape:connector-curvature="0" /><path
           d="m -1715.6902,-149.12226 c -8.36,5.72 -12.21,8.03 -13.64,8.03 -1.21,0 -2.09,-1.54 -2.09,-3.63 0,-2.53 0.88,-6.93 2.75,-13.97 1.1,-4.18 2.2,-8.36 2.31,-9.02 0.99,-4.18 1.76,-6.93 1.98,-7.7 0.33,-1.21 0.55,-2.31 0.55,-2.97 0,-0.88 -0.55,-1.43 -1.32,-1.43 -1.1,0 -9.02,4.29 -17.05,9.24 l -0.77,2.97 c 4.73,-2.42 6.71,-3.19 8.03,-3.19 0.88,0 1.54,0.77 1.54,2.09 0,1.54 -0.99,5.83 -3.08,13.64 -2.75,10.34 -3.41,13.31 -3.41,16.5 0,3.08 1.32,5.39 3.08,5.39 1.65,0 3.52,-0.99 9.13,-4.62 8.58,-5.5 8.58,-5.5 11.33,-7.37 -0.99,3.74 -1.54,7.48 -1.54,9.46 0,1.54 0.77,2.53 1.98,2.53 2.2,0 12.54,-6.05 20.13,-11.77 l 0.77,-3.3 c -7.81,4.62 -11.44,6.6 -12.65,6.6 -0.77,0 -1.21,-0.77 -1.21,-2.64 0,-5.61 3.96,-21.89 8.8,-35.97 -1.43,0.77 -2.42,1.32 -2.86,1.54 -1.32,0.66 -2.64,1.32 -4.07,1.87 -0.33,0.22 -0.99,0.55 -2.2,1.21 -0.77,2.75 -2.53,10.12 -5.39,22.11 z"
           id="path877"
           inkscape:connector-curvature="0" /><path
           d="m -1696.5571,-143.73226 c -0.11,0.99 -0.22,1.87 -0.22,2.53 0,4.84 3.3,8.03 8.14,8.03 3.52,0 8.14,-1.32 11.66,-3.41 6.6,-3.74 10.45,-9.35 10.45,-14.85 0,-4.07 -0.66,-4.95 -6.93,-8.8 -3.74,-2.42 -5.28,-4.51 -5.28,-7.37 0,-3.74 3.19,-7.04 6.93,-7.04 2.53,0 4.51,1.21 6.82,4.29 3.74,-3.63 3.74,-3.63 5.17,-5.72 -2.2,-2.64 -4.29,-3.74 -7.37,-3.74 -8.03,0 -18.37,9.46 -18.37,16.83 0,3.41 1.76,6.05 5.94,9.02 5.5,3.85 6.27,4.84 6.27,7.59 0,3.96 -5.06,8.58 -9.35,8.58 -2.42,0 -4.29,-1.32 -5.39,-3.74 -0.77,-1.65 -0.99,-3.3 -1.1,-7.15 -1.21,0.99 -2.09,1.54 -2.53,1.87 -0.88,0.55 -1.87,1.1 -2.86,1.76 -0.11,0 -1.1,0.77 -1.98,1.32 z"
           id="path879"
           inkscape:connector-curvature="0" /><path
           d="m -1657.7718,-133.39226 c 1.21,-0.44 2.31,-0.88 2.64,-0.99 0.66,-0.22 1.76,-0.55 2.97,-0.99 0.33,-0.11 1.32,-0.44 2.42,-0.77 l 4.29,-19.58 2.53,-1.54 c 2.2,5.06 2.64,6.05 6.16,14.3 4.73,11.22 7.59,15.73 12.1,19.25 4.73,3.63 11.55,5.94 17.38,5.94 5.06,0 8.58,-1.1 11.99,-3.85 l -2.2,-7.92 c -3.52,5.94 -6.71,8.25 -11.33,8.25 -3.63,0 -6.6,-1.76 -10.01,-5.83 -2.97,-3.52 -2.97,-3.52 -14.74,-28.49 l -3.19,-6.82 7.37,-6.71 c 4.4,-3.85 5.61,-4.62 7.7,-4.62 1.87,0 3.19,0.88 4.95,3.19 l 5.61,-8.36 c -2.2,-1.65 -3.74,-2.2 -6.16,-2.2 -2.97,0 -4.84,0.99 -8.14,4.07 -3.41,3.3 -3.52,3.41 -4.73,4.51 l -14.19,12.65 4.18,-16.83 c 3.52,-14.52 4.73,-18.04 6.6,-21.12 1.98,-3.19 4.84,-4.73 8.58,-4.73 0.99,0 1.87,0.11 3.85,0.44 l 4.4,-6.38 c -1.43,-0.22 -2.09,-0.33 -3.19,-0.33 -3.96,0 -6.49,0.88 -10.01,3.41 -7.04,4.95 -11.99,9.79 -13.42,12.98 -1.1,2.42 -3.19,9.68 -4.62,16.06 z"
           id="path881"
           inkscape:connector-curvature="0" /><path
           d="m -1610.1762,-133.50226 8.47,-3.19 8.25,-31.35 c 3.74,-2.86 6.27,-3.85 9.24,-3.85 2.42,0 3.85,0.88 5.83,3.41 l 3.3,-10.45 c -1.98,-0.66 -2.97,-0.88 -4.07,-0.88 -2.09,0 -4.29,0.99 -7.26,3.08 -1.43,1.1 -2.86,2.2 -4.4,3.19 -0.66,0.55 -1.43,1.1 -2.09,1.54 l 1.32,-6.6 c 0,-0.66 -0.66,-1.21 -1.43,-1.21 -1.43,0 -11.11,4.73 -17.82,8.69 l -0.33,2.97 c 6.38,-3.08 6.49,-3.19 7.92,-3.19 1.43,0 2.09,0.77 2.09,2.31 0,1.54 -1.1,6.6 -2.42,11.44 z"
           id="path883"
           inkscape:connector-curvature="0" /><path
           d="m -1554.8118,-202.36226 c -3.08,2.42 -5.61,4.4 -7.59,5.72 0.77,2.31 1.76,4.18 4.18,7.7 3.08,-2.75 3.41,-3.08 7.15,-5.94 -0.33,-0.66 -0.55,-1.1 -1.43,-2.53 -0.66,-1.32 -0.77,-1.32 -1.65,-3.52 z m 4.18,55 -1.87,0.99 c -7.59,4.18 -8.91,4.73 -10.23,4.73 -1.21,0 -1.98,-1.21 -1.98,-3.08 0,-1.87 0,-1.87 3.63,-16.39 4.07,-16.72 4.07,-16.72 4.07,-17.6 0,-0.66 -0.55,-1.1 -1.32,-1.1 -1.87,0 -8.36,3.63 -17.38,9.68 l -0.22,3.08 c 6.71,-3.63 7.04,-3.74 8.03,-3.74 0.88,0 1.32,0.66 1.32,1.87 0,1.54 -0.33,3.08 -1.98,9.35 -5.17,19.14 -5.17,19.14 -5.17,22 0,2.64 0.99,4.4 2.64,4.4 1.87,0 4.84,-1.43 10.67,-5.17 2.09,-1.32 4.18,-2.64 6.27,-4.07 0.99,-0.55 1.76,-1.1 3.08,-1.87 z"
           id="path885"
           inkscape:connector-curvature="0" /><path
           d="m -1555.996,-111.17226 -3.3,3.52 c 1.98,0.11 3.3,0.11 3.74,0.11 l 7.92,0.11 7.04,0.11 c 0.88,0 2.42,0 5.17,-0.11 l 3.41,-2.75 -12.32,-0.66 c 1.43,-6.71 2.09,-9.9 2.53,-11.66 0.55,-2.31 0.99,-4.62 1.54,-7.04 l 1.21,-4.73 c 2.2,0.44 3.41,0.55 5.28,0.55 6.05,0 7.26,-0.55 15.84,-7.7 3.74,-2.97 5.06,-4.51 6.71,-7.7 3.52,-7.15 5.83,-15.73 5.83,-22 0,-5.28 -2.31,-8.69 -5.94,-8.69 -2.64,0 -6.38,1.65 -10.89,4.95 -4.84,3.52 -7.81,5.72 -9.02,6.49 1.54,-6.49 2.31,-9.79 2.31,-10.01 0,-0.66 -0.77,-1.43 -1.54,-1.43 -1.1,0 -10.01,4.73 -18.15,9.57 l -0.66,2.86 c 0.77,-0.33 2.31,-0.99 4.51,-1.87 2.09,-0.99 2.53,-1.1 3.41,-1.1 1.32,0 2.09,1.1 2.09,3.08 0,3.96 -6.49,32.23 -12.76,55.88 z m 19.58,-34.21 1.65,-7.48 1.65,-7.15 c 0.11,-0.55 0.44,-1.98 0.88,-3.96 8.91,-6.6 12.43,-8.47 15.29,-8.47 2.2,0 3.63,2.31 3.63,6.05 0,4.95 -1.54,11.22 -4.29,17.16 -2.97,6.6 -6.71,9.79 -11.22,9.79 -2.75,0 -5.72,-0.88 -8.36,-2.42 z"
           id="path887"
           inkscape:connector-curvature="0" /><path
           d="m -1471.0055,-148.46226 c -8.36,5.06 -11.88,6.82 -13.42,6.82 -1.43,0 -3.19,-2.75 -3.19,-5.17 0,-1.54 0.11,-1.87 2.53,-12.32 0.55,-1.98 0.99,-4.07 1.43,-6.16 0.11,-0.33 0.55,-2.09 0.77,-3.08 3.74,-0.11 7.15,-0.33 10.89,-0.55 l 4.18,-3.19 h -14.08 c 0.55,-2.53 0.77,-3.3 1.1,-4.95 0.33,-1.1 1.1,-4.07 2.64,-10.01 l 0.66,-2.86 -1.87,0.99 c -0.66,0.22 -1.54,0.66 -2.75,1.21 -0.77,0.44 -1.65,0.77 -2.53,1.21 -0.44,0.22 -0.88,0.44 -1.54,0.66 l -0.99,4.51 -1.21,5.28 -0.88,3.96 c -0.99,0.11 -1.65,0.11 -1.98,0.11 h -2.64 c -0.22,0 -0.77,0 -1.65,0.11 -0.55,0.33 -0.99,0.66 -1.1,0.66 -0.33,0.22 -0.99,0.77 -2.09,1.65 -0.22,0.11 -0.77,0.66 -1.65,1.21 h 2.64 5.06 2.42 l -1.1,4.84 c -4.73,19.47 -4.73,19.47 -4.73,22.99 0,3.52 2.31,7.37 4.4,7.37 2.42,0 9.9,-4.51 20.46,-12.54 z"
           id="path889"
           inkscape:connector-curvature="0" /><path
           d="m -1415.6695,-148.79226 c -2.31,1.32 -2.31,1.32 -7.04,4.29 -3.19,1.98 -5.06,2.86 -6.27,2.86 -1.1,0 -1.98,-1.32 -1.98,-2.86 v -0.99 -0.99 c 0,-1.98 4.95,-23.32 9.02,-38.83 4.29,-16.28 5.28,-18.15 10.12,-18.15 1.65,0 2.75,0.11 5.39,0.77 l 4.73,-5.83 c -2.31,-0.55 -3.41,-0.66 -4.95,-0.66 -4.4,0 -7.81,1.65 -13.2,6.49 -4.84,4.29 -6.05,6.05 -7.48,10.01 -0.88,2.64 -3.3,11.55 -4.4,16.39 l -7.92,34.43 c -0.11,0.66 -0.22,1.32 -0.22,1.98 0,3.41 1.87,6.71 3.63,6.71 h 0.66 0.33 c 0.66,0.33 4.18,-2.09 19.58,-13.2 z"
           id="path891"
           inkscape:connector-curvature="0" /><path
           d="m -1383.5237,-179.81226 c -4.4,0 -11.44,3.19 -17.93,8.03 -7.04,5.28 -11.99,16.72 -11.99,27.72 0,6.6 3.74,10.89 9.57,10.89 3.08,0 6.27,-1.1 11.22,-3.74 5.5,-3.08 9.13,-5.83 11.11,-8.36 4.4,-6.05 7.92,-16.83 7.92,-24.42 0,-5.94 -4.07,-10.12 -9.9,-10.12 z m -5.72,5.17 c 4.4,0 7.15,4.18 7.15,10.89 0,4.73 -1.54,10.34 -4.18,15.73 -3.19,6.27 -7.15,9.68 -11.33,9.68 -4.51,0 -7.37,-4.07 -7.37,-10.34 0,-12.76 8.03,-25.96 15.73,-25.96 z"
           id="path893"
           inkscape:connector-curvature="0" /><path
           d="m -1369.0707,-133.50226 8.47,-3.19 8.25,-31.35 c 3.74,-2.86 6.27,-3.85 9.24,-3.85 2.42,0 3.85,0.88 5.83,3.41 l 3.3,-10.45 c -1.98,-0.66 -2.97,-0.88 -4.07,-0.88 -2.09,0 -4.29,0.99 -7.26,3.08 -1.43,1.1 -2.86,2.2 -4.4,3.19 -0.66,0.55 -1.43,1.1 -2.09,1.54 l 1.32,-6.6 c 0,-0.66 -0.66,-1.21 -1.43,-1.21 -1.43,0 -11.11,4.73 -17.82,8.69 l -0.33,2.97 c 6.38,-3.08 6.49,-3.19 7.92,-3.19 1.43,0 2.09,0.77 2.09,2.31 0,1.54 -1.1,6.6 -2.42,11.44 z"
           id="path895"
           inkscape:connector-curvature="0" /><path
           d="m -1305.5887,-149.67226 c -8.8,7.48 -13.53,10.23 -17.71,10.23 -2.86,0 -5.06,-1.87 -5.83,-4.73 -0.44,-1.76 -0.55,-2.97 -0.55,-6.16 5.06,-3.19 8.14,-5.39 14.63,-10.23 6.05,-4.51 8.25,-8.14 8.25,-13.09 0,-3.85 -2.31,-6.16 -6.27,-6.16 -2.42,0 -4.07,0.55 -6.71,1.98 -4.18,2.42 -7.92,5.39 -10.12,8.03 -4.18,5.06 -7.92,17.16 -7.92,26.07 0,6.49 3.41,10.56 9.02,10.56 6.49,0 14.85,-4.84 23.1,-13.31 z m -23.76,-4.62 c 1.87,-11.88 6.82,-20.9 11.66,-20.9 1.76,0 2.97,1.76 2.97,4.51 0,5.5 -3.19,9.02 -14.63,16.39 z"
           id="path897"
           inkscape:connector-curvature="0" /><path
           d="m -1299.8859,-133.50226 7.81,-2.97 7.04,-26.73 c 7.15,-4.95 11.88,-7.59 13.31,-7.59 0.88,0 1.43,0.88 1.43,2.42 0,3.3 -4.18,19.91 -8.8,34.87 l 8.36,-2.97 6.82,-27.5 c 6.27,-4.07 12.21,-7.37 13.53,-7.37 0.99,0 1.43,0.77 1.43,2.09 0,2.42 -0.99,7.37 -3.96,18.7 -1.65,6.82 -2.2,9.57 -2.2,12.1 0,2.31 0.55,3.52 2.64,4.95 6.38,-3.19 12.54,-7.15 18.59,-11.99 l 0.11,-2.53 c -9.35,5.72 -9.35,5.72 -10.89,5.72 -1.21,0 -1.98,-1.1 -1.98,-2.86 0,-2.53 1.32,-8.36 3.63,-16.5 3.52,-12.21 4.18,-14.74 4.18,-16.5 0,-1.1 -0.55,-1.65 -1.76,-1.65 -1.98,0 -8.8,3.52 -22.22,11.44 0.44,-1.98 0.44,-1.98 1.43,-6.27 0.44,-1.65 0.77,-3.52 0.77,-3.96 0,-0.77 -0.55,-1.21 -1.43,-1.21 -1.87,0 -6.05,2.31 -21.89,12.32 1.76,-7.48 2.31,-10.01 2.31,-10.78 0,-0.99 -0.66,-1.54 -1.65,-1.54 -1.1,0 -2.31,0.66 -7.81,3.74 -7.26,4.18 -7.26,4.18 -9.24,5.5 l -0.77,3.08 c 5.83,-2.97 6.82,-3.3 8.14,-3.3 0.88,0 1.54,0.88 1.54,2.09 0,1.65 -0.33,3.08 -4.73,20.57 -0.99,3.52 -1.87,7.15 -2.75,10.78 z"
           id="path899"
           inkscape:connector-curvature="0" /><path
           d="m -1911.2376,-70.362263 c -3.08,2.42 -5.61,4.4 -7.59,5.72 0.77,2.31 1.76,4.18 4.18,7.7 3.08,-2.75 3.41,-3.08 7.15,-5.94 -0.33,-0.66 -0.55,-1.1 -1.43,-2.53 -0.66,-1.32 -0.77,-1.32 -1.65,-3.52 z m 4.18,55 -1.87,0.99 c -7.59,4.18 -8.91,4.73 -10.23,4.73 -1.21,0 -1.98,-1.21 -1.98,-3.08 0,-1.87 0,-1.87 3.63,-16.39 4.07,-16.72 4.07,-16.72 4.07,-17.6 0,-0.66 -0.55,-1.1 -1.32,-1.1 -1.87,0 -8.36,3.63 -17.38,9.68 l -0.22,3.08 c 6.71,-3.63 7.04,-3.74 8.03,-3.74 0.88,0 1.32,0.66 1.32,1.87 0,1.54 -0.33,3.08 -1.98,9.35 -5.17,19.14 -5.17,19.14 -5.17,22 0,2.64 0.99,4.4 2.64,4.4 1.87,0 4.84,-1.43 10.67,-5.17 2.09,-1.32 4.18,-2.64 6.27,-4.07 0.99,-0.55 1.76,-1.1 3.08,-1.87 z"
           id="path901"
           inkscape:connector-curvature="0" /><path
           d="m -1912.4218,20.827737 -3.3,3.52 c 1.98,0.11 3.3,0.11 3.74,0.11 l 7.92,0.11 7.04,0.11 c 0.88,0 2.42,0 5.17,-0.11 l 3.41,-2.75 -12.32,-0.66 c 1.43,-6.71 2.09,-9.9 2.53,-11.66 0.55,-2.31 0.99,-4.62 1.54,-7.04 l 1.21,-4.73 c 2.2,0.44 3.41,0.55 5.28,0.55 6.05,0 7.26,-0.55 15.84,-7.7 3.74,-2.97 5.06,-4.51 6.71,-7.7 3.52,-7.15 5.83,-15.73 5.83,-22 0,-5.28 -2.31,-8.69 -5.94,-8.69 -2.64,0 -6.38,1.65 -10.89,4.95 -4.84,3.52 -7.81,5.72 -9.02,6.49 1.54,-6.49 2.31,-9.79 2.31,-10.01 0,-0.66 -0.77,-1.43 -1.54,-1.43 -1.1,0 -10.01,4.73 -18.15,9.57 l -0.66,2.86 c 0.77,-0.33 2.31,-0.99 4.51,-1.87 2.09,-0.99 2.53,-1.1 3.41,-1.1 1.32,0 2.09,1.1 2.09,3.08 0,3.96 -6.49,32.23 -12.76,55.88 z m 19.58,-34.21 1.65,-7.48 1.65,-7.15 c 0.11,-0.55 0.44,-1.98 0.88,-3.96 8.91,-6.6 12.43,-8.47 15.29,-8.47 2.2,0 3.63,2.31 3.63,6.05 0,4.95 -1.54,11.22 -4.29,17.16 -2.97,6.6 -6.71,9.79 -11.22,9.79 -2.75,0 -5.72,-0.88 -8.36,-2.42 z"
           id="path903"
           inkscape:connector-curvature="0" /><path
           d="m -1861.772,-11.732263 c -0.11,0.99 -0.22,1.87 -0.22,2.53 0,4.84 3.3,8.03 8.14,8.03 3.52,0 8.14,-1.32 11.66,-3.41 6.6,-3.74 10.45,-9.35 10.45,-14.85 0,-4.07 -0.66,-4.95 -6.93,-8.8 -3.74,-2.42 -5.28,-4.51 -5.28,-7.37 0,-3.74 3.19,-7.04 6.93,-7.04 2.53,0 4.51,1.21 6.82,4.29 3.74,-3.63 3.74,-3.63 5.17,-5.72 -2.2,-2.64 -4.29,-3.74 -7.37,-3.74 -8.03,0 -18.37,9.46 -18.37,16.83 0,3.41 1.76,6.05 5.94,9.02 5.5,3.85 6.27,4.84 6.27,7.59 0,3.96 -5.06,8.58 -9.35,8.58 -2.42,0 -4.29,-1.32 -5.39,-3.74 -0.77,-1.65 -0.99,-3.3 -1.1,-7.15 -1.21,0.99 -2.09,1.54 -2.53,1.87 -0.88,0.55 -1.87,1.1 -2.86,1.76 -0.11,0 -1.1,0.77 -1.98,1.32 z"
           id="path905"
           inkscape:connector-curvature="0" /><path
           d="m -1794.9676,-17.122263 c -8.36,5.72 -12.21,8.03 -13.64,8.03 -1.21,0 -2.09,-1.54 -2.09,-3.63 0,-2.53 0.88,-6.93 2.75,-13.97 1.1,-4.18 2.2,-8.36 2.31,-9.02 0.99,-4.18 1.76,-6.93 1.98,-7.7 0.33,-1.21 0.55,-2.31 0.55,-2.97 0,-0.88 -0.55,-1.43 -1.32,-1.43 -1.1,0 -9.02,4.29 -17.05,9.24 l -0.77,2.97 c 4.73,-2.42 6.71,-3.19 8.03,-3.19 0.88,0 1.54,0.77 1.54,2.09 0,1.54 -0.99,5.83 -3.08,13.64 -2.75,10.34 -3.41,13.31 -3.41,16.5 0,3.08 1.32,5.39 3.08,5.39 1.65,0 3.52,-0.99 9.13,-4.62 8.58,-5.5 8.58,-5.5 11.33,-7.37 -0.99,3.74 -1.54,7.48 -1.54,9.46 0,1.54 0.77,2.53 1.98,2.53 2.2,0 12.54,-6.05 20.13,-11.77 l 0.77,-3.3 c -7.81,4.62 -11.44,6.6 -12.65,6.6 -0.77,0 -1.21,-0.77 -1.21,-2.64 0,-5.61 3.96,-21.89 8.8,-35.97 -1.43,0.77 -2.42,1.32 -2.86,1.54 -1.32,0.66 -2.64,1.32 -4.07,1.87 -0.33,0.22 -0.99,0.55 -2.2,1.21 -0.77,2.75 -2.53,10.12 -5.39,22.11 z"
           id="path907"
           inkscape:connector-curvature="0" /><path
           d="m -1770.4445,-1.502263 7.81,-2.97 7.04,-26.73 c 7.15,-4.95 11.88,-7.59 13.31,-7.59 0.88,0 1.43,0.88 1.43,2.42 0,3.3 -4.18,19.91 -8.8,34.87 l 8.36,-2.97 6.82,-27.5 c 6.27,-4.07 12.21,-7.37 13.53,-7.37 0.99,0 1.43,0.77 1.43,2.09 0,2.42 -0.99,7.37 -3.96,18.7 -1.65,6.82 -2.2,9.57 -2.2,12.1 0,2.31 0.55,3.52 2.64,4.95 6.38,-3.19 12.54,-7.15 18.59,-11.99 l 0.11,-2.53 c -9.35,5.72 -9.35,5.72 -10.89,5.72 -1.21,0 -1.98,-1.1 -1.98,-2.86 0,-2.53 1.32,-8.36 3.63,-16.5 3.52,-12.21 4.18,-14.74 4.18,-16.5 0,-1.1 -0.55,-1.65 -1.76,-1.65 -1.98,0 -8.8,3.52 -22.22,11.44 0.44,-1.98 0.44,-1.98 1.43,-6.27 0.44,-1.65 0.77,-3.52 0.77,-3.96 0,-0.77 -0.55,-1.21 -1.43,-1.21 -1.87,0 -6.05,2.31 -21.89,12.32 1.76,-7.48 2.31,-10.01 2.31,-10.78 0,-0.99 -0.66,-1.54 -1.65,-1.54 -1.1,0 -2.31,0.66 -7.81,3.74 -7.26,4.18 -7.26,4.18 -9.24,5.5 l -0.77,3.08 c 5.83,-2.97 6.82,-3.3 8.14,-3.3 0.88,0 1.54,0.88 1.54,2.09 0,1.65 -0.33,3.08 -4.73,20.57 -0.99,3.52 -1.87,7.15 -2.75,10.78 z"
           id="path909"
           inkscape:connector-curvature="0" /><path
           d="m -1568.9257,-17.012263 -3.08,1.98 c -2.75,1.87 -4.62,3.19 -5.17,3.52 -2.31,1.43 -4.4,2.42 -4.95,2.42 -0.88,0 -1.54,-1.21 -1.54,-2.86 0,-3.63 9.13,-43.45 11.55,-50.27 2.42,-6.6 4.84,-9.13 8.8,-9.13 1.54,0 2.53,0.22 5.06,0.88 l 3.85,-6.16 c -1.65,-0.33 -2.42,-0.44 -3.52,-0.44 -2.64,0 -4.18,0.44 -6.6,1.87 -2.75,1.54 -6.49,4.4 -9.57,7.26 -5.39,5.17 -5.72,5.94 -8.58,17.27 -0.11,0.44 -0.44,1.98 -0.88,3.52 -1.98,-0.44 -3.52,-0.66 -4.51,-0.66 -3.41,0 -12.87,5.94 -17.27,10.78 -3.74,4.29 -8.69,19.8 -8.69,27.39 0,4.18 2.2,8.47 4.18,8.47 2.09,0 7.15,-3.08 18.48,-11.33 -0.55,2.97 -0.88,5.83 -0.88,7.92 0,2.2 0.77,3.41 2.42,3.41 1.76,0 11.33,-5.83 20.46,-12.43 z m -21.56,0.44 c -9.35,6.6 -11.77,8.03 -13.31,8.03 -1.54,0 -2.31,-1.54 -2.31,-4.84 0,-3.63 0.66,-7.7 1.98,-12.65 3.08,-11.11 7.48,-16.61 13.09,-16.61 2.09,0 3.52,0.77 5.72,2.97 z"
           id="path911"
           inkscape:connector-curvature="0" /><path
           d="m -1535.7659,-47.812263 c -4.4,0 -11.44,3.19 -17.93,8.03 -7.04,5.28 -11.99,16.72 -11.99,27.72 0,6.6 3.74,10.89 9.57,10.89 3.08,0 6.27,-1.1 11.22,-3.74 5.5,-3.08 9.13,-5.83 11.11,-8.36 4.4,-6.05 7.92,-16.83 7.92,-24.42 0,-5.94 -4.07,-10.12 -9.9,-10.12 z m -5.72,5.17 c 4.4,0 7.15,4.18 7.15,10.89 0,4.73 -1.54,10.34 -4.18,15.73 -3.19,6.27 -7.15,9.68 -11.33,9.68 -4.51,0 -7.37,-4.07 -7.37,-10.34 0,-12.76 8.03,-25.96 15.73,-25.96 z"
           id="path913"
           inkscape:connector-curvature="0" /><path
           d="m -1497.4429,-16.792263 c -2.31,1.32 -2.31,1.32 -7.04,4.29 -3.19,1.98 -5.06,2.86 -6.27,2.86 -1.1,0 -1.98,-1.32 -1.98,-2.86 v -0.99 -0.99 c 0,-1.98 4.95,-23.32 9.02,-38.83 4.29,-16.28 5.28,-18.15 10.12,-18.15 1.65,0 2.75,0.11 5.39,0.77 l 4.73,-5.83 c -2.31,-0.55 -3.41,-0.66 -4.95,-0.66 -4.4,0 -7.81,1.65 -13.2,6.49 -4.84,4.29 -6.05,6.05 -7.48,10.01 -0.88,2.64 -3.3,11.55 -4.4,16.39 l -7.92,34.43 c -0.11,0.66 -0.22,1.32 -0.22,1.98 0,3.41 1.87,6.71 3.63,6.71 h 0.66 0.33 c 0.66,0.33 4.18,-2.09 19.58,-13.2 z"
           id="path915"
           inkscape:connector-curvature="0" /><path
           d="m -1465.2971,-47.812263 c -4.4,0 -11.44,3.19 -17.93,8.03 -7.04,5.28 -11.99,16.72 -11.99,27.72 0,6.6 3.74,10.89 9.57,10.89 3.08,0 6.27,-1.1 11.22,-3.74 5.5,-3.08 9.13,-5.83 11.11,-8.36 4.4,-6.05 7.92,-16.83 7.92,-24.42 0,-5.94 -4.07,-10.12 -9.9,-10.12 z m -5.72,5.17 c 4.4,0 7.15,4.18 7.15,10.89 0,4.73 -1.54,10.34 -4.18,15.73 -3.19,6.27 -7.15,9.68 -11.33,9.68 -4.51,0 -7.37,-4.07 -7.37,-10.34 0,-12.76 8.03,-25.96 15.73,-25.96 z"
           id="path917"
           inkscape:connector-curvature="0" /><path
           d="m -1450.8441,-1.502263 8.47,-3.19 8.25,-31.35 c 3.74,-2.86 6.27,-3.85 9.24,-3.85 2.42,0 3.85,0.88 5.83,3.41 l 3.3,-10.45 c -1.98,-0.66 -2.97,-0.88 -4.07,-0.88 -2.09,0 -4.29,0.99 -7.26,3.08 -1.43,1.1 -2.86,2.2 -4.4,3.19 -0.66,0.55 -1.43,1.1 -2.09,1.54 l 1.32,-6.6 c 0,-0.66 -0.66,-1.21 -1.43,-1.21 -1.43,0 -11.11,4.73 -17.82,8.69 l -0.33,2.97 c 6.38,-3.08 6.49,-3.19 7.92,-3.19 1.43,0 2.09,0.77 2.09,2.31 0,1.54 -1.1,6.6 -2.42,11.44 z"
           id="path919"
           inkscape:connector-curvature="0" /><path
           d="m -1334.0649,-11.732263 c -0.11,0.99 -0.22,1.87 -0.22,2.53 0,4.84 3.3,8.03 8.14,8.03 3.52,0 8.14,-1.32 11.66,-3.41 6.6,-3.74 10.45,-9.35 10.45,-14.85 0,-4.07 -0.66,-4.95 -6.93,-8.8 -3.74,-2.42 -5.28,-4.51 -5.28,-7.37 0,-3.74 3.19,-7.04 6.93,-7.04 2.53,0 4.51,1.21 6.82,4.29 3.74,-3.63 3.74,-3.63 5.17,-5.72 -2.2,-2.64 -4.29,-3.74 -7.37,-3.74 -8.03,0 -18.37,9.46 -18.37,16.83 0,3.41 1.76,6.05 5.94,9.02 5.5,3.85 6.27,4.84 6.27,7.59 0,3.96 -5.06,8.58 -9.35,8.58 -2.42,0 -4.29,-1.32 -5.39,-3.74 -0.77,-1.65 -0.99,-3.3 -1.1,-7.15 -1.21,0.99 -2.09,1.54 -2.53,1.87 -0.88,0.55 -1.87,1.1 -2.86,1.76 -0.11,0 -1.1,0.77 -1.98,1.32 z"
           id="path921"
           inkscape:connector-curvature="0" /><path
           d="m -1273.5305,-70.362263 c -3.08,2.42 -5.61,4.4 -7.59,5.72 0.77,2.31 1.76,4.18 4.18,7.7 3.08,-2.75 3.41,-3.08 7.15,-5.94 -0.33,-0.66 -0.55,-1.1 -1.43,-2.53 -0.66,-1.32 -0.77,-1.32 -1.65,-3.52 z m 4.18,55 -1.87,0.99 c -7.59,4.18 -8.91,4.73 -10.23,4.73 -1.21,0 -1.98,-1.21 -1.98,-3.08 0,-1.87 0,-1.87 3.63,-16.39 4.07,-16.72 4.07,-16.72 4.07,-17.6 0,-0.66 -0.55,-1.1 -1.32,-1.1 -1.87,0 -8.36,3.63 -17.38,9.68 l -0.22,3.08 c 6.71,-3.63 7.04,-3.74 8.03,-3.74 0.88,0 1.32,0.66 1.32,1.87 0,1.54 -0.33,3.08 -1.98,9.35 -5.17,19.14 -5.17,19.14 -5.17,22 0,2.64 0.99,4.4 2.64,4.4 1.87,0 4.84,-1.43 10.67,-5.17 2.09,-1.32 4.18,-2.64 6.27,-4.07 0.99,-0.55 1.76,-1.1 3.08,-1.87 z"
           id="path923"
           inkscape:connector-curvature="0" /><path
           d="m -1237.2048,-16.462263 c -8.36,5.06 -11.88,6.82 -13.42,6.82 -1.43,0 -3.19,-2.75 -3.19,-5.17 0,-1.54 0.11,-1.87 2.53,-12.32 0.55,-1.98 0.99,-4.07 1.43,-6.16 0.11,-0.33 0.55,-2.09 0.77,-3.08 3.74,-0.11 7.15,-0.33 10.89,-0.55 l 4.18,-3.19 h -14.08 c 0.55,-2.53 0.77,-3.3 1.1,-4.95 0.33,-1.1 1.1,-4.07 2.64,-10.01 l 0.66,-2.86 -1.87,0.99 c -0.66,0.22 -1.54,0.66 -2.75,1.21 -0.77,0.44 -1.65,0.77 -2.53,1.21 -0.44,0.22 -0.88,0.44 -1.54,0.66 l -0.99,4.51 -1.21,5.28 -0.88,3.96 c -0.99,0.11 -1.65,0.11 -1.98,0.11 h -2.64 c -0.22,0 -0.77,0 -1.65,0.11 -0.55,0.33 -0.99,0.66 -1.1,0.66 -0.33,0.22 -0.99,0.77 -2.09,1.65 -0.22,0.11 -0.77,0.66 -1.65,1.21 h 2.64 5.06 2.42 l -1.1,4.84 c -4.73,19.47 -4.73,19.47 -4.73,22.99 0,3.52 2.31,7.37 4.4,7.37 2.42,0 9.9,-4.51 20.46,-12.54 z"
           id="path925"
           inkscape:connector-curvature="0" /><path
           d="m -1887.1476,114.98774 c -8.03,5.5 -9.9,6.6 -11,6.6 -0.77,0 -1.32,-0.88 -1.32,-2.2 0,-2.97 2.53,-14.52 6.6,-29.590003 1.21,-1.76 1.43,-1.98 3.19,-3.96 -5.28,-1.21 -9.02,-1.65 -13.86,-1.65 -4.51,0 -6.71,0.44 -9.46,2.2 -3.96,2.31 -8.58,5.72 -10.01,7.26 -4.18,4.62 -8.69,19.470003 -8.69,28.380003 0,5.28 1.76,8.8 4.51,8.8 2.42,0 6.05,-2.2 19.8,-12.1 -1.21,5.61 -1.65,8.36 -1.65,9.79 0,1.54 0.66,2.31 1.76,2.31 1.43,0 2.31,-0.44 10.12,-5.61 3.74,-2.53 5.83,-3.96 9.9,-6.93 z m -19.36,-0.77 c -3.85,2.86 -5.83,4.29 -5.94,4.4 -3.63,2.31 -6.49,3.74 -7.92,3.74 -1.87,0 -2.86,-1.98 -2.86,-5.5 0,-5.61 1.65,-12.87 4.51,-19.250003 2.64,-6.05 5.06,-8.36 8.8,-8.36 1.98,0 5.72,0.55 9.35,1.43 -2.2,7.92 -2.97,10.890003 -3.08,11.440003 -0.66,2.75 -1.21,5.5 -1.87,8.36 -0.11,0.55 -0.44,1.87 -0.99,3.74 z"
           id="path927"
           inkscape:connector-curvature="0" /><path
           d="m -1884.9562,130.49774 7.81,-2.97 7.04,-26.73 c 7.15,-4.950003 11.88,-7.590003 13.31,-7.590003 0.88,0 1.43,0.88 1.43,2.42 0,3.3 -4.18,19.910003 -8.8,34.870003 l 8.36,-2.97 6.82,-27.5 c 6.27,-4.070003 12.21,-7.370003 13.53,-7.370003 0.99,0 1.43,0.77 1.43,2.09 0,2.42 -0.99,7.370003 -3.96,18.700003 -1.65,6.82 -2.2,9.57 -2.2,12.1 0,2.31 0.55,3.52 2.64,4.95 6.38,-3.19 12.54,-7.15 18.59,-11.99 l 0.11,-2.53 c -9.35,5.72 -9.35,5.72 -10.89,5.72 -1.21,0 -1.98,-1.1 -1.98,-2.86 0,-2.53 1.32,-8.36 3.63,-16.5 3.52,-12.210003 4.18,-14.740003 4.18,-16.500003 0,-1.1 -0.55,-1.65 -1.76,-1.65 -1.98,0 -8.8,3.52 -22.22,11.44 0.44,-1.98 0.44,-1.98 1.43,-6.27 0.44,-1.65 0.77,-3.52 0.77,-3.96 0,-0.77 -0.55,-1.21 -1.43,-1.21 -1.87,0 -6.05,2.31 -21.89,12.32 1.76,-7.48 2.31,-10.01 2.31,-10.78 0,-0.99 -0.66,-1.54 -1.65,-1.54 -1.1,0 -2.31,0.66 -7.81,3.74 -7.26,4.18 -7.26,4.18 -9.24,5.5 l -0.77,3.08 c 5.83,-2.97 6.82,-3.3 8.14,-3.3 0.88,0 1.54,0.88 1.54,2.09 0,1.65 -0.33,3.08 -4.73,20.570003 -0.99,3.52 -1.87,7.15 -2.75,10.78 z"
           id="path929"
           inkscape:connector-curvature="0" /><path
           d="m -1785.1707,114.32774 c -8.8,7.48 -13.53,10.23 -17.71,10.23 -2.86,0 -5.06,-1.87 -5.83,-4.73 -0.44,-1.76 -0.55,-2.97 -0.55,-6.16 5.06,-3.19 8.14,-5.39 14.63,-10.23 6.05,-4.510003 8.25,-8.140003 8.25,-13.090003 0,-3.85 -2.31,-6.16 -6.27,-6.16 -2.42,0 -4.07,0.55 -6.71,1.98 -4.18,2.42 -7.92,5.39 -10.12,8.03 -4.18,5.06 -7.92,17.160003 -7.92,26.070003 0,6.49 3.41,10.56 9.02,10.56 6.49,0 14.85,-4.84 23.1,-13.31 z m -23.76,-4.62 c 1.87,-11.880003 6.82,-20.900003 11.66,-20.900003 1.76,0 2.97,1.76 2.97,4.51 0,5.5 -3.19,9.020003 -14.63,16.390003 z"
           id="path931"
           inkscape:connector-curvature="0" /><path
           d="m -1750.7321,115.53774 c -8.36,5.06 -11.88,6.82 -13.42,6.82 -1.43,0 -3.19,-2.75 -3.19,-5.17 0,-1.54 0.11,-1.87 2.53,-12.32 0.55,-1.98 0.99,-4.07 1.43,-6.160003 0.11,-0.33 0.55,-2.09 0.77,-3.08 3.74,-0.11 7.15,-0.33 10.89,-0.55 l 4.18,-3.19 h -14.08 c 0.55,-2.53 0.77,-3.3 1.1,-4.95 0.33,-1.1 1.1,-4.07 2.64,-10.01 l 0.66,-2.86 -1.87,0.99 c -0.66,0.22 -1.54,0.66 -2.75,1.21 -0.77,0.44 -1.65,0.77 -2.53,1.21 -0.44,0.22 -0.88,0.44 -1.54,0.66 l -0.99,4.51 -1.21,5.28 -0.88,3.96 c -0.99,0.11 -1.65,0.11 -1.98,0.11 h -2.64 c -0.22,0 -0.77,0 -1.65,0.11 -0.55,0.33 -0.99,0.66 -1.1,0.66 -0.33,0.22 -0.99,0.77 -2.09,1.65 -0.22,0.11 -0.77,0.66 -1.65,1.21 h 2.64 5.06 2.42 l -1.1,4.840003 c -4.73,19.47 -4.73,19.47 -4.73,22.99 0,3.52 2.31,7.37 4.4,7.37 2.42,0 9.9,-4.51 20.46,-12.54 z"
           id="path933"
           inkscape:connector-curvature="0" /><path
           d="m -1749.1577,140.17774 c 12.87,-11.11 14.85,-14.41 17.38,-29.81 -3.96,1.21 -4.07,1.32 -7.92,2.42 -0.99,12.32 -4.07,18.7 -12.43,26.18 z"
           id="path935"
           inkscape:connector-curvature="0" /><path
           d="m -1633.1102,115.42774 c -8.36,6.05 -14.3,9.13 -17.82,9.13 -3.96,0 -6.27,-3.08 -6.27,-8.36 0,-5.39 1.32,-12.32 3.41,-17.490003 2.31,-5.83 5.06,-8.8 8.25,-8.8 2.64,0 4.07,2.09 4.62,6.93 l 6.38,-3.74 c 0.11,-0.55 0.11,-1.1 0.11,-1.32 0,-4.73 -2.42,-7.59 -6.27,-7.59 -2.09,0 -3.08,0.44 -7.15,3.08 -8.25,5.17 -10.01,6.82 -12.43,11.33 -3.08,5.940003 -5.39,15.290003 -5.39,22.110003 0,6.49 2.86,10.12 8.03,10.12 5.28,0 14.08,-4.29 24.31,-11.88 z"
           id="path937"
           inkscape:connector-curvature="0" /><path
           d="m -1598.3674,84.187737 c -4.4,0 -11.44,3.19 -17.93,8.03 -7.04,5.28 -11.99,16.720003 -11.99,27.720003 0,6.6 3.74,10.89 9.57,10.89 3.08,0 6.27,-1.1 11.22,-3.74 5.5,-3.08 9.13,-5.83 11.11,-8.36 4.4,-6.05 7.92,-16.83 7.92,-24.420003 0,-5.94 -4.07,-10.12 -9.9,-10.12 z m -5.72,5.17 c 4.4,0 7.15,4.18 7.15,10.890003 0,4.73 -1.54,10.34 -4.18,15.73 -3.19,6.27 -7.15,9.68 -11.33,9.68 -4.51,0 -7.37,-4.07 -7.37,-10.34 0,-12.76 8.03,-25.960003 15.73,-25.960003 z"
           id="path939"
           inkscape:connector-curvature="0" /><path
           d="m -1575.7745,127.30774 6.49,-25.85 2.75,-1.760003 c 10.23,-6.38 11.44,-7.04 12.98,-7.04 0.66,0 1.1,0.55 1.1,1.43 0,1.76 -0.77,4.95 -4.07,18.370003 -2.42,9.68 -2.86,11.66 -2.86,13.75 0,1.54 0.44,2.86 1.65,4.95 4.95,-2.2 12.65,-7.04 20.35,-12.76 l 0.77,-3.08 c -10.67,6.16 -11.44,6.49 -12.54,6.49 -1.1,0 -1.76,-1.1 -1.76,-2.97 0,-2.97 0.44,-4.84 5.28,-22.330003 2.75,-9.79 2.75,-9.79 2.75,-10.45 0,-1.21 -0.77,-1.87 -2.09,-1.87 -2.42,0 -2.75,0.22 -14.63,7.48 -4.4,2.75 -7.26,4.51 -8.58,5.39 1.1,-3.85 2.64,-10.56 2.64,-11.44 0,-0.88 -0.55,-1.43 -1.43,-1.43 -1.21,0 -8.69,3.85 -17.27,8.91 l -0.66,2.86 c 7.04,-3.19 7.48,-3.3 8.47,-3.3 0.77,0 1.32,0.66 1.32,1.54 0,2.42 -1.98,11.220003 -4.84,21.450003 l -2.53,8.91 c -0.22,0.77 -0.77,2.86 -1.54,5.94 z"
           id="path941"
           inkscape:connector-curvature="0" /><path
           d="m -1538.3813,120.26774 c -0.11,0.99 -0.22,1.87 -0.22,2.53 0,4.84 3.3,8.03 8.14,8.03 3.52,0 8.14,-1.32 11.66,-3.41 6.6,-3.74 10.45,-9.35 10.45,-14.85 0,-4.07 -0.66,-4.95 -6.93,-8.8 -3.74,-2.42 -5.28,-4.510003 -5.28,-7.370003 0,-3.74 3.19,-7.04 6.93,-7.04 2.53,0 4.51,1.21 6.82,4.29 3.74,-3.63 3.74,-3.63 5.17,-5.72 -2.2,-2.64 -4.29,-3.74 -7.37,-3.74 -8.03,0 -18.37,9.46 -18.37,16.830003 0,3.41 1.76,6.05 5.94,9.02 5.5,3.85 6.27,4.84 6.27,7.59 0,3.96 -5.06,8.58 -9.35,8.58 -2.42,0 -4.29,-1.32 -5.39,-3.74 -0.77,-1.65 -0.99,-3.3 -1.1,-7.15 -1.21,0.99 -2.09,1.54 -2.53,1.87 -0.88,0.55 -1.87,1.1 -2.86,1.76 -0.11,0 -1.1,0.77 -1.98,1.32 z"
           id="path943"
           inkscape:connector-curvature="0" /><path
           d="m -1466.077,114.32774 c -8.8,7.48 -13.53,10.23 -17.71,10.23 -2.86,0 -5.06,-1.87 -5.83,-4.73 -0.44,-1.76 -0.55,-2.97 -0.55,-6.16 5.06,-3.19 8.14,-5.39 14.63,-10.23 6.05,-4.510003 8.25,-8.140003 8.25,-13.090003 0,-3.85 -2.31,-6.16 -6.27,-6.16 -2.42,0 -4.07,0.55 -6.71,1.98 -4.18,2.42 -7.92,5.39 -10.12,8.03 -4.18,5.06 -7.92,17.160003 -7.92,26.070003 0,6.49 3.41,10.56 9.02,10.56 6.49,0 14.85,-4.84 23.1,-13.31 z m -23.76,-4.62 c 1.87,-11.880003 6.82,-20.900003 11.66,-20.900003 1.76,0 2.97,1.76 2.97,4.51 0,5.5 -3.19,9.020003 -14.63,16.390003 z"
           id="path945"
           inkscape:connector-curvature="0" /><path
           d="m -1428.3641,115.42774 c -8.36,6.05 -14.3,9.13 -17.82,9.13 -3.96,0 -6.27,-3.08 -6.27,-8.36 0,-5.39 1.32,-12.32 3.41,-17.490003 2.31,-5.83 5.06,-8.8 8.25,-8.8 2.64,0 4.07,2.09 4.62,6.93 l 6.38,-3.74 c 0.11,-0.55 0.11,-1.1 0.11,-1.32 0,-4.73 -2.42,-7.59 -6.27,-7.59 -2.09,0 -3.08,0.44 -7.15,3.08 -8.25,5.17 -10.01,6.82 -12.43,11.33 -3.08,5.940003 -5.39,15.290003 -5.39,22.110003 0,6.49 2.86,10.12 8.03,10.12 5.28,0 14.08,-4.29 24.31,-11.88 z"
           id="path947"
           inkscape:connector-curvature="0" /><path
           d="m -1394.2555,115.53774 c -8.36,5.06 -11.88,6.82 -13.42,6.82 -1.43,0 -3.19,-2.75 -3.19,-5.17 0,-1.54 0.11,-1.87 2.53,-12.32 0.55,-1.98 0.99,-4.07 1.43,-6.160003 0.11,-0.33 0.55,-2.09 0.77,-3.08 3.74,-0.11 7.15,-0.33 10.89,-0.55 l 4.18,-3.19 h -14.08 c 0.55,-2.53 0.77,-3.3 1.1,-4.95 0.33,-1.1 1.1,-4.07 2.64,-10.01 l 0.66,-2.86 -1.87,0.99 c -0.66,0.22 -1.54,0.66 -2.75,1.21 -0.77,0.44 -1.65,0.77 -2.53,1.21 -0.44,0.22 -0.88,0.44 -1.54,0.66 l -0.99,4.51 -1.21,5.28 -0.88,3.96 c -0.99,0.11 -1.65,0.11 -1.98,0.11 h -2.64 c -0.22,0 -0.77,0 -1.65,0.11 -0.55,0.33 -0.99,0.66 -1.1,0.66 -0.33,0.22 -0.99,0.77 -2.09,1.65 -0.22,0.11 -0.77,0.66 -1.65,1.21 h 2.64 5.06 2.42 l -1.1,4.840003 c -4.73,19.47 -4.73,19.47 -4.73,22.99 0,3.52 2.31,7.37 4.4,7.37 2.42,0 9.9,-4.51 20.46,-12.54 z"
           id="path949"
           inkscape:connector-curvature="0" /><path
           d="m -1356.5066,114.32774 c -8.8,7.48 -13.53,10.23 -17.71,10.23 -2.86,0 -5.06,-1.87 -5.83,-4.73 -0.44,-1.76 -0.55,-2.97 -0.55,-6.16 5.06,-3.19 8.14,-5.39 14.63,-10.23 6.05,-4.510003 8.25,-8.140003 8.25,-13.090003 0,-3.85 -2.31,-6.16 -6.27,-6.16 -2.42,0 -4.07,0.55 -6.71,1.98 -4.18,2.42 -7.92,5.39 -10.12,8.03 -4.18,5.06 -7.92,17.160003 -7.92,26.070003 0,6.49 3.41,10.56 9.02,10.56 6.49,0 14.85,-4.84 23.1,-13.31 z m -23.76,-4.62 c 1.87,-11.880003 6.82,-20.900003 11.66,-20.900003 1.76,0 2.97,1.76 2.97,4.51 0,5.5 -3.19,9.020003 -14.63,16.390003 z"
           id="path951"
           inkscape:connector-curvature="0" /><path
           d="m -1322.068,115.53774 c -8.36,5.06 -11.88,6.82 -13.42,6.82 -1.43,0 -3.19,-2.75 -3.19,-5.17 0,-1.54 0.11,-1.87 2.53,-12.32 0.55,-1.98 0.99,-4.07 1.43,-6.160003 0.11,-0.33 0.55,-2.09 0.77,-3.08 3.74,-0.11 7.15,-0.33 10.89,-0.55 l 4.18,-3.19 h -14.08 c 0.55,-2.53 0.77,-3.3 1.1,-4.95 0.33,-1.1 1.1,-4.07 2.64,-10.01 l 0.66,-2.86 -1.87,0.99 c -0.66,0.22 -1.54,0.66 -2.75,1.21 -0.77,0.44 -1.65,0.77 -2.53,1.21 -0.44,0.22 -0.88,0.44 -1.54,0.66 l -0.99,4.51 -1.21,5.28 -0.88,3.96 c -0.99,0.11 -1.65,0.11 -1.98,0.11 h -2.64 c -0.22,0 -0.77,0 -1.65,0.11 -0.55,0.33 -0.99,0.66 -1.1,0.66 -0.33,0.22 -0.99,0.77 -2.09,1.65 -0.22,0.11 -0.77,0.66 -1.65,1.21 h 2.64 5.06 2.42 l -1.1,4.840003 c -4.73,19.47 -4.73,19.47 -4.73,22.99 0,3.52 2.31,7.37 4.4,7.37 2.42,0 9.9,-4.51 20.46,-12.54 z"
           id="path953"
           inkscape:connector-curvature="0" /><path
           d="m -1289.3895,114.87774 c -8.36,5.72 -12.21,8.03 -13.64,8.03 -1.21,0 -2.09,-1.54 -2.09,-3.63 0,-2.53 0.88,-6.93 2.75,-13.97 1.1,-4.18 2.2,-8.360003 2.31,-9.020003 0.99,-4.18 1.76,-6.93 1.98,-7.7 0.33,-1.21 0.55,-2.31 0.55,-2.97 0,-0.88 -0.55,-1.43 -1.32,-1.43 -1.1,0 -9.02,4.29 -17.05,9.24 l -0.77,2.97 c 4.73,-2.42 6.71,-3.19 8.03,-3.19 0.88,0 1.54,0.77 1.54,2.09 0,1.54 -0.99,5.830003 -3.08,13.640003 -2.75,10.34 -3.41,13.31 -3.41,16.5 0,3.08 1.32,5.39 3.08,5.39 1.65,0 3.52,-0.99 9.13,-4.62 8.58,-5.5 8.58,-5.5 11.33,-7.37 -0.99,3.74 -1.54,7.48 -1.54,9.46 0,1.54 0.77,2.53 1.98,2.53 2.2,0 12.54,-6.05 20.13,-11.77 l 0.77,-3.3 c -7.81,4.62 -11.44,6.6 -12.65,6.6 -0.77,0 -1.21,-0.77 -1.21,-2.64 0,-5.61 3.96,-21.890003 8.8,-35.970003 -1.43,0.77 -2.42,1.32 -2.86,1.54 -1.32,0.66 -2.64,1.32 -4.07,1.87 -0.33,0.22 -0.99,0.55 -2.2,1.21 -0.77,2.75 -2.53,10.12 -5.39,22.110003 z"
           id="path955"
           inkscape:connector-curvature="0" /><path
           d="m -1265.0863,130.49774 8.47,-3.19 8.25,-31.350003 c 3.74,-2.86 6.27,-3.85 9.24,-3.85 2.42,0 3.85,0.88 5.83,3.41 l 3.3,-10.45 c -1.98,-0.66 -2.97,-0.88 -4.07,-0.88 -2.09,0 -4.29,0.99 -7.26,3.08 -1.43,1.1 -2.86,2.2 -4.4,3.19 -0.66,0.55 -1.43,1.1 -2.09,1.54 l 1.32,-6.6 c 0,-0.66 -0.66,-1.21 -1.43,-1.21 -1.43,0 -11.11,4.73 -17.82,8.69 l -0.33,2.97 c 6.38,-3.08 6.49,-3.19 7.92,-3.19 1.43,0 2.09,0.77 2.09,2.31 0,1.54 -1.1,6.600003 -2.42,11.440003 z"
           id="path957"
           inkscape:connector-curvature="0" /><path
           d="m -1887.1476,246.98774 c -8.03,5.5 -9.9,6.6 -11,6.6 -0.77,0 -1.32,-0.88 -1.32,-2.2 0,-2.97 2.53,-14.52 6.6,-29.59 1.21,-1.76 1.43,-1.98 3.19,-3.96 -5.28,-1.21 -9.02,-1.65 -13.86,-1.65 -4.51,0 -6.71,0.44 -9.46,2.2 -3.96,2.31 -8.58,5.72 -10.01,7.26 -4.18,4.62 -8.69,19.47 -8.69,28.38 0,5.28 1.76,8.8 4.51,8.8 2.42,0 6.05,-2.2 19.8,-12.1 -1.21,5.61 -1.65,8.36 -1.65,9.79 0,1.54 0.66,2.31 1.76,2.31 1.43,0 2.31,-0.44 10.12,-5.61 3.74,-2.53 5.83,-3.96 9.9,-6.93 z m -19.36,-0.77 c -3.85,2.86 -5.83,4.29 -5.94,4.4 -3.63,2.31 -6.49,3.74 -7.92,3.74 -1.87,0 -2.86,-1.98 -2.86,-5.5 0,-5.61 1.65,-12.87 4.51,-19.25 2.64,-6.05 5.06,-8.36 8.8,-8.36 1.98,0 5.72,0.55 9.35,1.43 -2.2,7.92 -2.97,10.89 -3.08,11.44 -0.66,2.75 -1.21,5.5 -1.87,8.36 -0.11,0.55 -0.44,1.87 -0.99,3.74 z"
           id="path959"
           inkscape:connector-curvature="0" /><path
           d="m -1840.4062,246.98774 -3.08,1.98 c -2.75,1.87 -4.62,3.19 -5.17,3.52 -2.31,1.43 -4.4,2.42 -4.95,2.42 -0.88,0 -1.54,-1.21 -1.54,-2.86 0,-3.63 9.13,-43.45 11.55,-50.27 2.42,-6.6 4.84,-9.13 8.8,-9.13 1.54,0 2.53,0.22 5.06,0.88 l 3.85,-6.16 c -1.65,-0.33 -2.42,-0.44 -3.52,-0.44 -2.64,0 -4.18,0.44 -6.6,1.87 -2.75,1.54 -6.49,4.4 -9.57,7.26 -5.39,5.17 -5.72,5.94 -8.58,17.27 -0.11,0.44 -0.44,1.98 -0.88,3.52 -1.98,-0.44 -3.52,-0.66 -4.51,-0.66 -3.41,0 -12.87,5.94 -17.27,10.78 -3.74,4.29 -8.69,19.8 -8.69,27.39 0,4.18 2.2,8.47 4.18,8.47 2.09,0 7.15,-3.08 18.48,-11.33 -0.55,2.97 -0.88,5.83 -0.88,7.92 0,2.2 0.77,3.41 2.42,3.41 1.76,0 11.33,-5.83 20.46,-12.43 z m -21.56,0.44 c -9.35,6.6 -11.77,8.03 -13.31,8.03 -1.54,0 -2.31,-1.54 -2.31,-4.84 0,-3.63 0.66,-7.7 1.98,-12.65 3.08,-11.11 7.48,-16.61 13.09,-16.61 2.09,0 3.52,0.77 5.72,2.97 z"
           id="path961"
           inkscape:connector-curvature="0" /><path
           d="m -1816.7063,193.63774 c -3.08,2.42 -5.61,4.4 -7.59,5.72 0.77,2.31 1.76,4.18 4.18,7.7 3.08,-2.75 3.41,-3.08 7.15,-5.94 -0.33,-0.66 -0.55,-1.1 -1.43,-2.53 -0.66,-1.32 -0.77,-1.32 -1.65,-3.52 z m 4.18,55 -1.87,0.99 c -7.59,4.18 -8.91,4.73 -10.23,4.73 -1.21,0 -1.98,-1.21 -1.98,-3.08 0,-1.87 0,-1.87 3.63,-16.39 4.07,-16.72 4.07,-16.72 4.07,-17.6 0,-0.66 -0.55,-1.1 -1.32,-1.1 -1.87,0 -8.36,3.63 -17.38,9.68 l -0.22,3.08 c 6.71,-3.63 7.04,-3.74 8.03,-3.74 0.88,0 1.32,0.66 1.32,1.87 0,1.54 -0.33,3.08 -1.98,9.35 -5.17,19.14 -5.17,19.14 -5.17,22 0,2.64 0.99,4.4 2.64,4.4 1.87,0 4.84,-1.43 10.67,-5.17 2.09,-1.32 4.18,-2.64 6.27,-4.07 0.99,-0.55 1.76,-1.1 3.08,-1.87 z"
           id="path963"
           inkscape:connector-curvature="0" /><path
           d="m -1817.8905,284.82774 -3.3,3.52 c 1.98,0.11 3.3,0.11 3.74,0.11 l 7.92,0.11 7.04,0.11 c 0.88,0 2.42,0 5.17,-0.11 l 3.41,-2.75 -12.32,-0.66 c 1.43,-6.71 2.09,-9.9 2.53,-11.66 0.55,-2.31 0.99,-4.62 1.54,-7.04 l 1.21,-4.73 c 2.2,0.44 3.41,0.55 5.28,0.55 6.05,0 7.26,-0.55 15.84,-7.7 3.74,-2.97 5.06,-4.51 6.71,-7.7 3.52,-7.15 5.83,-15.73 5.83,-22 0,-5.28 -2.31,-8.69 -5.94,-8.69 -2.64,0 -6.38,1.65 -10.89,4.95 -4.84,3.52 -7.81,5.72 -9.02,6.49 1.54,-6.49 2.31,-9.79 2.31,-10.01 0,-0.66 -0.77,-1.43 -1.54,-1.43 -1.1,0 -10.01,4.73 -18.15,9.57 l -0.66,2.86 c 0.77,-0.33 2.31,-0.99 4.51,-1.87 2.09,-0.99 2.53,-1.1 3.41,-1.1 1.32,0 2.09,1.1 2.09,3.08 0,3.96 -6.49,32.23 -12.76,55.88 z m 19.58,-34.21 1.65,-7.48 1.65,-7.15 c 0.11,-0.55 0.44,-1.98 0.88,-3.96 8.91,-6.6 12.43,-8.47 15.29,-8.47 2.2,0 3.63,2.31 3.63,6.05 0,4.95 -1.54,11.22 -4.29,17.16 -2.97,6.6 -6.71,9.79 -11.22,9.79 -2.75,0 -5.72,-0.88 -8.36,-2.42 z"
           id="path965"
           inkscape:connector-curvature="0" /><path
           d="m -1741.9407,193.63774 c -3.08,2.42 -5.61,4.4 -7.59,5.72 0.77,2.31 1.76,4.18 4.18,7.7 3.08,-2.75 3.41,-3.08 7.15,-5.94 -0.33,-0.66 -0.55,-1.1 -1.43,-2.53 -0.66,-1.32 -0.77,-1.32 -1.65,-3.52 z m 4.18,55 -1.87,0.99 c -7.59,4.18 -8.91,4.73 -10.23,4.73 -1.21,0 -1.98,-1.21 -1.98,-3.08 0,-1.87 0,-1.87 3.63,-16.39 4.07,-16.72 4.07,-16.72 4.07,-17.6 0,-0.66 -0.55,-1.1 -1.32,-1.1 -1.87,0 -8.36,3.63 -17.38,9.68 l -0.22,3.08 c 6.71,-3.63 7.04,-3.74 8.03,-3.74 0.88,0 1.32,0.66 1.32,1.87 0,1.54 -0.33,3.08 -1.98,9.35 -5.17,19.14 -5.17,19.14 -5.17,22 0,2.64 0.99,4.4 2.64,4.4 1.87,0 4.84,-1.43 10.67,-5.17 2.09,-1.32 4.18,-2.64 6.27,-4.07 0.99,-0.55 1.76,-1.1 3.08,-1.87 z"
           id="path967"
           inkscape:connector-curvature="0" /><path
           d="m -1740.8149,252.26774 c -0.11,0.99 -0.22,1.87 -0.22,2.53 0,4.84 3.3,8.03 8.14,8.03 3.52,0 8.14,-1.32 11.66,-3.41 6.6,-3.74 10.45,-9.35 10.45,-14.85 0,-4.07 -0.66,-4.95 -6.93,-8.8 -3.74,-2.42 -5.28,-4.51 -5.28,-7.37 0,-3.74 3.19,-7.04 6.93,-7.04 2.53,0 4.51,1.21 6.82,4.29 3.74,-3.63 3.74,-3.63 5.17,-5.72 -2.2,-2.64 -4.29,-3.74 -7.37,-3.74 -8.03,0 -18.37,9.46 -18.37,16.83 0,3.41 1.76,6.05 5.94,9.02 5.5,3.85 6.27,4.84 6.27,7.59 0,3.96 -5.06,8.58 -9.35,8.58 -2.42,0 -4.29,-1.32 -5.39,-3.74 -0.77,-1.65 -0.99,-3.3 -1.1,-7.15 -1.21,0.99 -2.09,1.54 -2.53,1.87 -0.88,0.55 -1.87,1.1 -2.86,1.76 -0.11,0 -1.1,0.77 -1.98,1.32 z"
           id="path969"
           inkscape:connector-curvature="0" /><path
           d="m -1668.1805,247.42774 c -8.36,6.05 -14.3,9.13 -17.82,9.13 -3.96,0 -6.27,-3.08 -6.27,-8.36 0,-5.39 1.32,-12.32 3.41,-17.49 2.31,-5.83 5.06,-8.8 8.25,-8.8 2.64,0 4.07,2.09 4.62,6.93 l 6.38,-3.74 c 0.11,-0.55 0.11,-1.1 0.11,-1.32 0,-4.73 -2.42,-7.59 -6.27,-7.59 -2.09,0 -3.08,0.44 -7.15,3.08 -8.25,5.17 -10.01,6.82 -12.43,11.33 -3.08,5.94 -5.39,15.29 -5.39,22.11 0,6.49 2.86,10.12 8.03,10.12 5.28,0 14.08,-4.29 24.31,-11.88 z"
           id="path971"
           inkscape:connector-curvature="0" /><path
           d="m -1642.8977,193.63774 c -3.08,2.42 -5.61,4.4 -7.59,5.72 0.77,2.31 1.76,4.18 4.18,7.7 3.08,-2.75 3.41,-3.08 7.15,-5.94 -0.33,-0.66 -0.55,-1.1 -1.43,-2.53 -0.66,-1.32 -0.77,-1.32 -1.65,-3.52 z m 4.18,55 -1.87,0.99 c -7.59,4.18 -8.91,4.73 -10.23,4.73 -1.21,0 -1.98,-1.21 -1.98,-3.08 0,-1.87 0,-1.87 3.63,-16.39 4.07,-16.72 4.07,-16.72 4.07,-17.6 0,-0.66 -0.55,-1.1 -1.32,-1.1 -1.87,0 -8.36,3.63 -17.38,9.68 l -0.22,3.08 c 6.71,-3.63 7.04,-3.74 8.03,-3.74 0.88,0 1.32,0.66 1.32,1.87 0,1.54 -0.33,3.08 -1.98,9.35 -5.17,19.14 -5.17,19.14 -5.17,22 0,2.64 0.99,4.4 2.64,4.4 1.87,0 4.84,-1.43 10.67,-5.17 2.09,-1.32 4.18,-2.64 6.27,-4.07 0.99,-0.55 1.76,-1.1 3.08,-1.87 z"
           id="path973"
           inkscape:connector-curvature="0" /><path
           d="m -1628.462,259.30774 6.49,-25.85 2.75,-1.76 c 10.23,-6.38 11.44,-7.04 12.98,-7.04 0.66,0 1.1,0.55 1.1,1.43 0,1.76 -0.77,4.95 -4.07,18.37 -2.42,9.68 -2.86,11.66 -2.86,13.75 0,1.54 0.44,2.86 1.65,4.95 4.95,-2.2 12.65,-7.04 20.35,-12.76 l 0.77,-3.08 c -10.67,6.16 -11.44,6.49 -12.54,6.49 -1.1,0 -1.76,-1.1 -1.76,-2.97 0,-2.97 0.44,-4.84 5.28,-22.33 2.75,-9.79 2.75,-9.79 2.75,-10.45 0,-1.21 -0.77,-1.87 -2.09,-1.87 -2.42,0 -2.75,0.22 -14.63,7.48 -4.4,2.75 -7.26,4.51 -8.58,5.39 1.1,-3.85 2.64,-10.56 2.64,-11.44 0,-0.88 -0.55,-1.43 -1.43,-1.43 -1.21,0 -8.69,3.85 -17.27,8.91 l -0.66,2.86 c 7.04,-3.19 7.48,-3.3 8.47,-3.3 0.77,0 1.32,0.66 1.32,1.54 0,2.42 -1.98,11.22 -4.84,21.45 l -2.53,8.91 c -0.22,0.77 -0.77,2.86 -1.54,5.94 z"
           id="path975"
           inkscape:connector-curvature="0" /><path
           d="m -1551.6991,237.30774 c 0.44,-2.42 0.99,-4.51 1.43,-6.27 0.55,-2.09 1.1,-4.18 1.65,-6.16 l 0.55,-2.42 c 1.98,-0.55 2.09,-0.55 5.61,-6.16 -0.55,0 -1.98,0 -12.76,0.22 -6.71,0.11 -8.69,0.44 -11.88,2.42 -5.28,3.19 -9.02,6.38 -11.33,9.35 -3.3,4.4 -7.26,17.49 -7.26,24.31 0,2.75 0.66,4.73 2.42,7.15 -6.71,5.83 -8.69,7.48 -12.65,10.89 -5.5,4.84 -8.03,8.47 -8.03,11.55 0,4.07 4.73,6.38 13.2,6.38 10.12,0 18.04,-2.86 25.41,-9.24 4.73,-4.07 5.83,-6.38 8.14,-17.27 z m -14.41,30.14 c -1.43,6.71 -2.42,9.13 -4.4,11.22 -2.42,2.86 -6.93,4.18 -13.42,4.18 -7.15,0 -11,-1.87 -11,-5.5 0,-4.51 3.08,-7.26 33.55,-30.69 z m -8.36,-14.41 c -1.98,-1.98 -2.75,-3.74 -2.75,-6.38 0,-2.53 0.55,-5.28 2.53,-11.77 1.98,-6.6 3.52,-9.46 6.05,-11 1.98,-1.32 4.4,-1.54 15.4,-1.54 h 3.52 c -4.62,3.41 -5.17,3.85 -6.16,5.5 -0.88,1.43 -2.09,5.61 -4.51,14.85 -1.87,1.21 -2.2,1.54 -3.63,2.53 -2.64,1.87 -5.17,3.85 -7.59,5.72 z"
           id="path977"
           inkscape:connector-curvature="0" /><path
           d="m -1485.2488,246.32774 c -8.8,7.48 -13.53,10.23 -17.71,10.23 -2.86,0 -5.06,-1.87 -5.83,-4.73 -0.44,-1.76 -0.55,-2.97 -0.55,-6.16 5.06,-3.19 8.14,-5.39 14.63,-10.23 6.05,-4.51 8.25,-8.14 8.25,-13.09 0,-3.85 -2.31,-6.16 -6.27,-6.16 -2.42,0 -4.07,0.55 -6.71,1.98 -4.18,2.42 -7.92,5.39 -10.12,8.03 -4.18,5.06 -7.92,17.16 -7.92,26.07 0,6.49 3.41,10.56 9.02,10.56 6.49,0 14.85,-4.84 23.1,-13.31 z m -23.76,-4.62 c 1.87,-11.88 6.82,-20.9 11.66,-20.9 1.76,0 2.97,1.76 2.97,4.51 0,5.5 -3.19,9.02 -14.63,16.39 z"
           id="path979"
           inkscape:connector-curvature="0" /><path
           d="m -1455.2515,247.20774 c -2.31,1.32 -2.31,1.32 -7.04,4.29 -3.19,1.98 -5.06,2.86 -6.27,2.86 -1.1,0 -1.98,-1.32 -1.98,-2.86 v -0.99 -0.99 c 0,-1.98 4.95,-23.32 9.02,-38.83 4.29,-16.28 5.28,-18.15 10.12,-18.15 1.65,0 2.75,0.11 5.39,0.77 l 4.73,-5.83 c -2.31,-0.55 -3.41,-0.66 -4.95,-0.66 -4.4,0 -7.81,1.65 -13.2,6.49 -4.84,4.29 -6.05,6.05 -7.48,10.01 -0.88,2.64 -3.3,11.55 -4.4,16.39 l -7.92,34.43 c -0.11,0.66 -0.22,1.32 -0.22,1.98 0,3.41 1.87,6.71 3.63,6.71 h 0.66 0.33 c 0.66,0.33 4.18,-2.09 19.58,-13.2 z"
           id="path981"
           inkscape:connector-curvature="0" /><path
           d="m -1432.5657,193.63774 c -3.08,2.42 -5.61,4.4 -7.59,5.72 0.77,2.31 1.76,4.18 4.18,7.7 3.08,-2.75 3.41,-3.08 7.15,-5.94 -0.33,-0.66 -0.55,-1.1 -1.43,-2.53 -0.66,-1.32 -0.77,-1.32 -1.65,-3.52 z m 4.18,55 -1.87,0.99 c -7.59,4.18 -8.91,4.73 -10.23,4.73 -1.21,0 -1.98,-1.21 -1.98,-3.08 0,-1.87 0,-1.87 3.63,-16.39 4.07,-16.72 4.07,-16.72 4.07,-17.6 0,-0.66 -0.55,-1.1 -1.32,-1.1 -1.87,0 -8.36,3.63 -17.38,9.68 l -0.22,3.08 c 6.71,-3.63 7.04,-3.74 8.03,-3.74 0.88,0 1.32,0.66 1.32,1.87 0,1.54 -0.33,3.08 -1.98,9.35 -5.17,19.14 -5.17,19.14 -5.17,22 0,2.64 0.99,4.4 2.64,4.4 1.87,0 4.84,-1.43 10.67,-5.17 2.09,-1.32 4.18,-2.64 6.27,-4.07 0.99,-0.55 1.76,-1.1 3.08,-1.87 z"
           id="path983"
           inkscape:connector-curvature="0" /><path
           d="m -1396.2399,247.53774 c -8.36,5.06 -11.88,6.82 -13.42,6.82 -1.43,0 -3.19,-2.75 -3.19,-5.17 0,-1.54 0.11,-1.87 2.53,-12.32 0.55,-1.98 0.99,-4.07 1.43,-6.16 0.11,-0.33 0.55,-2.09 0.77,-3.08 3.74,-0.11 7.15,-0.33 10.89,-0.55 l 4.18,-3.19 h -14.08 c 0.55,-2.53 0.77,-3.3 1.1,-4.95 0.33,-1.1 1.1,-4.07 2.64,-10.01 l 0.66,-2.86 -1.87,0.99 c -0.66,0.22 -1.54,0.66 -2.75,1.21 -0.77,0.44 -1.65,0.77 -2.53,1.21 -0.44,0.22 -0.88,0.44 -1.54,0.66 l -0.99,4.51 -1.21,5.28 -0.88,3.96 c -0.99,0.11 -1.65,0.11 -1.98,0.11 h -2.64 c -0.22,0 -0.77,0 -1.65,0.11 -0.55,0.33 -0.99,0.66 -1.1,0.66 -0.33,0.22 -0.99,0.77 -2.09,1.65 -0.22,0.11 -0.77,0.66 -1.65,1.21 h 2.64 5.06 2.42 l -1.1,4.84 c -4.73,19.47 -4.73,19.47 -4.73,22.99 0,3.52 2.31,7.37 4.4,7.37 2.42,0 9.9,-4.51 20.46,-12.54 z"
           id="path985"
           inkscape:connector-curvature="0" /><path
           d="m -1388.521,253.91774 c 0.88,2.42 3.08,5.94 5.17,8.47 4.18,-3.08 5.17,-3.85 8.14,-6.93 -1.32,-1.87 -2.42,-3.63 -2.53,-3.74 -0.77,-1.21 -1.32,-2.09 -2.64,-4.4 -0.33,0.33 -0.88,0.77 -1.54,1.32 -0.88,0.66 -1.76,1.43 -2.64,2.2 -0.77,0.55 -1.43,1.1 -3.96,3.08 z"
           id="path987"
           inkscape:connector-curvature="0" /><path
           d="m -1936.4276,382.17774 -4.84,11.44 c 3.85,5.17 8.91,7.59 16.17,7.59 16.83,0 33.33,-13.64 33.33,-27.72 0,-4.51 -1.65,-6.82 -9.9,-13.2 -8.03,-6.27 -9.35,-8.14 -9.35,-12.87 0,-7.26 5.39,-13.31 11.88,-13.31 4.62,0 6.27,1.98 7.48,9.02 l 7.26,-5.17 c -0.66,-5.94 -3.96,-9.02 -9.79,-9.02 -11.33,0 -24.2,12.43 -24.2,23.43 0,5.06 2.2,8.47 8.69,13.53 7.48,5.94 9.46,8.91 9.46,13.97 0,8.69 -8.25,16.17 -17.82,16.17 -4.73,0 -9.57,-2.09 -12.54,-5.39 -2.31,-2.53 -3.19,-4.84 -4.07,-9.68 z"
           id="path989"
           inkscape:connector-curvature="0" /><path
           d="m -1850.4832,378.32774 c -8.8,7.48 -13.53,10.23 -17.71,10.23 -2.86,0 -5.06,-1.87 -5.83,-4.73 -0.44,-1.76 -0.55,-2.97 -0.55,-6.16 5.06,-3.19 8.14,-5.39 14.63,-10.23 6.05,-4.51 8.25,-8.14 8.25,-13.09 0,-3.85 -2.31,-6.16 -6.27,-6.16 -2.42,0 -4.07,0.55 -6.71,1.98 -4.18,2.42 -7.92,5.39 -10.12,8.03 -4.18,5.06 -7.92,17.16 -7.92,26.07 0,6.49 3.41,10.56 9.02,10.56 6.49,0 14.85,-4.84 23.1,-13.31 z m -23.76,-4.62 c 1.87,-11.88 6.82,-20.9 11.66,-20.9 1.76,0 2.97,1.76 2.97,4.51 0,5.5 -3.19,9.02 -14.63,16.39 z"
           id="path991"
           inkscape:connector-curvature="0" /><path
           d="m -1800.2304,378.98774 -3.08,1.98 c -2.75,1.87 -4.62,3.19 -5.17,3.52 -2.31,1.43 -4.4,2.42 -4.95,2.42 -0.88,0 -1.54,-1.21 -1.54,-2.86 0,-3.63 9.13,-43.45 11.55,-50.27 2.42,-6.6 4.84,-9.13 8.8,-9.13 1.54,0 2.53,0.22 5.06,0.88 l 3.85,-6.16 c -1.65,-0.33 -2.42,-0.44 -3.52,-0.44 -2.64,0 -4.18,0.44 -6.6,1.87 -2.75,1.54 -6.49,4.4 -9.57,7.26 -5.39,5.17 -5.72,5.94 -8.58,17.27 -0.11,0.44 -0.44,1.98 -0.88,3.52 -1.98,-0.44 -3.52,-0.66 -4.51,-0.66 -3.41,0 -12.87,5.94 -17.27,10.78 -3.74,4.29 -8.69,19.8 -8.69,27.39 0,4.18 2.2,8.47 4.18,8.47 2.09,0 7.15,-3.08 18.48,-11.33 -0.55,2.97 -0.88,5.83 -0.88,7.92 0,2.2 0.77,3.41 2.42,3.41 1.76,0 11.33,-5.83 20.46,-12.43 z m -21.56,0.44 c -9.35,6.6 -11.77,8.03 -13.31,8.03 -1.54,0 -2.31,-1.54 -2.31,-4.84 0,-3.63 0.66,-7.7 1.98,-12.65 3.08,-11.11 7.48,-16.61 13.09,-16.61 2.09,0 3.52,0.77 5.72,2.97 z"
           id="path993"
           inkscape:connector-curvature="0" /><path
           d="m -1764.2432,391.30774 6.49,-25.85 2.75,-1.76 c 10.23,-6.38 11.44,-7.04 12.98,-7.04 0.66,0 1.1,0.55 1.1,1.43 0,1.76 -0.77,4.95 -4.07,18.37 -2.42,9.68 -2.86,11.66 -2.86,13.75 0,1.54 0.44,2.86 1.65,4.95 4.95,-2.2 12.65,-7.04 20.35,-12.76 l 0.77,-3.08 c -10.67,6.16 -11.44,6.49 -12.54,6.49 -1.1,0 -1.76,-1.1 -1.76,-2.97 0,-2.97 0.44,-4.84 5.28,-22.33 2.75,-9.79 2.75,-9.79 2.75,-10.45 0,-1.21 -0.77,-1.87 -2.09,-1.87 -2.42,0 -2.75,0.22 -14.63,7.48 -4.4,2.75 -7.26,4.51 -8.58,5.39 1.1,-3.85 2.64,-10.56 2.64,-11.44 0,-0.88 -0.55,-1.43 -1.43,-1.43 -1.21,0 -8.69,3.85 -17.27,8.91 l -0.66,2.86 c 7.04,-3.19 7.48,-3.3 8.47,-3.3 0.77,0 1.32,0.66 1.32,1.54 0,2.42 -1.98,11.22 -4.84,21.45 l -2.53,8.91 c -0.22,0.77 -0.77,2.86 -1.54,5.94 z"
           id="path995"
           inkscape:connector-curvature="0" /><path
           d="m -1692.0901,348.18774 c -4.4,0 -11.44,3.19 -17.93,8.03 -7.04,5.28 -11.99,16.72 -11.99,27.72 0,6.6 3.74,10.89 9.57,10.89 3.08,0 6.27,-1.1 11.22,-3.74 5.5,-3.08 9.13,-5.83 11.11,-8.36 4.4,-6.05 7.92,-16.83 7.92,-24.42 0,-5.94 -4.07,-10.12 -9.9,-10.12 z m -5.72,5.17 c 4.4,0 7.15,4.18 7.15,10.89 0,4.73 -1.54,10.34 -4.18,15.73 -3.19,6.27 -7.15,9.68 -11.33,9.68 -4.51,0 -7.37,-4.07 -7.37,-10.34 0,-12.76 8.03,-25.96 15.73,-25.96 z"
           id="path997"
           inkscape:connector-curvature="0" /><path
           d="m -1669.4971,391.30774 6.49,-25.85 2.75,-1.76 c 10.23,-6.38 11.44,-7.04 12.98,-7.04 0.66,0 1.1,0.55 1.1,1.43 0,1.76 -0.77,4.95 -4.07,18.37 -2.42,9.68 -2.86,11.66 -2.86,13.75 0,1.54 0.44,2.86 1.65,4.95 4.95,-2.2 12.65,-7.04 20.35,-12.76 l 0.77,-3.08 c -10.67,6.16 -11.44,6.49 -12.54,6.49 -1.1,0 -1.76,-1.1 -1.76,-2.97 0,-2.97 0.44,-4.84 5.28,-22.33 2.75,-9.79 2.75,-9.79 2.75,-10.45 0,-1.21 -0.77,-1.87 -2.09,-1.87 -2.42,0 -2.75,0.22 -14.63,7.48 -4.4,2.75 -7.26,4.51 -8.58,5.39 1.1,-3.85 2.64,-10.56 2.64,-11.44 0,-0.88 -0.55,-1.43 -1.43,-1.43 -1.21,0 -8.69,3.85 -17.27,8.91 l -0.66,2.86 c 7.04,-3.19 7.48,-3.3 8.47,-3.3 0.77,0 1.32,0.66 1.32,1.54 0,2.42 -1.98,11.22 -4.84,21.45 l -2.53,8.91 c -0.22,0.77 -0.77,2.86 -1.54,5.94 z"
           id="path999"
           inkscape:connector-curvature="0" /><path
           d="m -1602.6566,394.49774 8.47,-3.19 8.25,-31.35 c 3.74,-2.86 6.27,-3.85 9.24,-3.85 2.42,0 3.85,0.88 5.83,3.41 l 3.3,-10.45 c -1.98,-0.66 -2.97,-0.88 -4.07,-0.88 -2.09,0 -4.29,0.99 -7.26,3.08 -1.43,1.1 -2.86,2.2 -4.4,3.19 -0.66,0.55 -1.43,1.1 -2.09,1.54 l 1.32,-6.6 c 0,-0.66 -0.66,-1.21 -1.43,-1.21 -1.43,0 -11.11,4.73 -17.82,8.69 l -0.33,2.97 c 6.38,-3.08 6.49,-3.19 7.92,-3.19 1.43,0 2.09,0.77 2.09,2.31 0,1.54 -1.1,6.6 -2.42,11.44 z"
           id="path1001"
           inkscape:connector-curvature="0" /><path
           d="m -1547.2923,325.63774 c -3.08,2.42 -5.61,4.4 -7.59,5.72 0.77,2.31 1.76,4.18 4.18,7.7 3.08,-2.75 3.41,-3.08 7.15,-5.94 -0.33,-0.66 -0.55,-1.1 -1.43,-2.53 -0.66,-1.32 -0.77,-1.32 -1.65,-3.52 z m 4.18,55 -1.87,0.99 c -7.59,4.18 -8.91,4.73 -10.23,4.73 -1.21,0 -1.98,-1.21 -1.98,-3.08 0,-1.87 0,-1.87 3.63,-16.39 4.07,-16.72 4.07,-16.72 4.07,-17.6 0,-0.66 -0.55,-1.1 -1.32,-1.1 -1.87,0 -8.36,3.63 -17.38,9.68 l -0.22,3.08 c 6.71,-3.63 7.04,-3.74 8.03,-3.74 0.88,0 1.32,0.66 1.32,1.87 0,1.54 -0.33,3.08 -1.98,9.35 -5.17,19.14 -5.17,19.14 -5.17,22 0,2.64 0.99,4.4 2.64,4.4 1.87,0 4.84,-1.43 10.67,-5.17 2.09,-1.32 4.18,-2.64 6.27,-4.07 0.99,-0.55 1.76,-1.1 3.08,-1.87 z"
           id="path1003"
           inkscape:connector-curvature="0" /><path
           d="m -1546.1665,384.26774 c -0.11,0.99 -0.22,1.87 -0.22,2.53 0,4.84 3.3,8.03 8.14,8.03 3.52,0 8.14,-1.32 11.66,-3.41 6.6,-3.74 10.45,-9.35 10.45,-14.85 0,-4.07 -0.66,-4.95 -6.93,-8.8 -3.74,-2.42 -5.28,-4.51 -5.28,-7.37 0,-3.74 3.19,-7.04 6.93,-7.04 2.53,0 4.51,1.21 6.82,4.29 3.74,-3.63 3.74,-3.63 5.17,-5.72 -2.2,-2.64 -4.29,-3.74 -7.37,-3.74 -8.03,0 -18.37,9.46 -18.37,16.83 0,3.41 1.76,6.05 5.94,9.02 5.5,3.85 6.27,4.84 6.27,7.59 0,3.96 -5.06,8.58 -9.35,8.58 -2.42,0 -4.29,-1.32 -5.39,-3.74 -0.77,-1.65 -0.99,-3.3 -1.1,-7.15 -1.21,0.99 -2.09,1.54 -2.53,1.87 -0.88,0.55 -1.87,1.1 -2.86,1.76 -0.11,0 -1.1,0.77 -1.98,1.32 z"
           id="path1005"
           inkscape:connector-curvature="0" /><path
           d="m -1479.3621,378.87774 c -8.36,5.72 -12.21,8.03 -13.64,8.03 -1.21,0 -2.09,-1.54 -2.09,-3.63 0,-2.53 0.88,-6.93 2.75,-13.97 1.1,-4.18 2.2,-8.36 2.31,-9.02 0.99,-4.18 1.76,-6.93 1.98,-7.7 0.33,-1.21 0.55,-2.31 0.55,-2.97 0,-0.88 -0.55,-1.43 -1.32,-1.43 -1.1,0 -9.02,4.29 -17.05,9.24 l -0.77,2.97 c 4.73,-2.42 6.71,-3.19 8.03,-3.19 0.88,0 1.54,0.77 1.54,2.09 0,1.54 -0.99,5.83 -3.08,13.64 -2.75,10.34 -3.41,13.31 -3.41,16.5 0,3.08 1.32,5.39 3.08,5.39 1.65,0 3.52,-0.99 9.13,-4.62 8.58,-5.5 8.58,-5.5 11.33,-7.37 -0.99,3.74 -1.54,7.48 -1.54,9.46 0,1.54 0.77,2.53 1.98,2.53 2.2,0 12.54,-6.05 20.13,-11.77 l 0.77,-3.3 c -7.81,4.62 -11.44,6.6 -12.65,6.6 -0.77,0 -1.21,-0.77 -1.21,-2.64 0,-5.61 3.96,-21.89 8.8,-35.97 -1.43,0.77 -2.42,1.32 -2.86,1.54 -1.32,0.66 -2.64,1.32 -4.07,1.87 -0.33,0.22 -0.99,0.55 -2.2,1.21 -0.77,2.75 -2.53,10.12 -5.39,22.11 z"
           id="path1007"
           inkscape:connector-curvature="0" /><path
           d="m -1460.229,384.26774 c -0.11,0.99 -0.22,1.87 -0.22,2.53 0,4.84 3.3,8.03 8.14,8.03 3.52,0 8.14,-1.32 11.66,-3.41 6.6,-3.74 10.45,-9.35 10.45,-14.85 0,-4.07 -0.66,-4.95 -6.93,-8.8 -3.74,-2.42 -5.28,-4.51 -5.28,-7.37 0,-3.74 3.19,-7.04 6.93,-7.04 2.53,0 4.51,1.21 6.82,4.29 3.74,-3.63 3.74,-3.63 5.17,-5.72 -2.2,-2.64 -4.29,-3.74 -7.37,-3.74 -8.03,0 -18.37,9.46 -18.37,16.83 0,3.41 1.76,6.05 5.94,9.02 5.5,3.85 6.27,4.84 6.27,7.59 0,3.96 -5.06,8.58 -9.35,8.58 -2.42,0 -4.29,-1.32 -5.39,-3.74 -0.77,-1.65 -0.99,-3.3 -1.1,-7.15 -1.21,0.99 -2.09,1.54 -2.53,1.87 -0.88,0.55 -1.87,1.1 -2.86,1.76 -0.11,0 -1.1,0.77 -1.98,1.32 z"
           id="path1009"
           inkscape:connector-curvature="0" /><path
           d="m -1419.2437,385.91774 c 0.88,2.42 3.08,5.94 5.17,8.47 4.18,-3.08 5.17,-3.85 8.14,-6.93 -1.32,-1.87 -2.42,-3.63 -2.53,-3.74 -0.77,-1.21 -1.32,-2.09 -2.64,-4.4 -0.33,0.33 -0.88,0.77 -1.54,1.32 -0.88,0.66 -1.76,1.43 -2.64,2.2 -0.77,0.55 -1.43,1.1 -3.96,3.08 z"
           id="path1011"
           inkscape:connector-curvature="0" /><path
           d="m -1936.4276,514.17774 -4.84,11.44 c 3.85,5.17 8.91,7.59 16.17,7.59 16.83,0 33.33,-13.64 33.33,-27.72 0,-4.51 -1.65,-6.82 -9.9,-13.2 -8.03,-6.27 -9.35,-8.14 -9.35,-12.87 0,-7.26 5.39,-13.31 11.88,-13.31 4.62,0 6.27,1.98 7.48,9.02 l 7.26,-5.17 c -0.66,-5.94 -3.96,-9.02 -9.79,-9.02 -11.33,0 -24.2,12.43 -24.2,23.43 0,5.06 2.2,8.47 8.69,13.53 7.48,5.94 9.46,8.91 9.46,13.97 0,8.69 -8.25,16.17 -17.82,16.17 -4.73,0 -9.57,-2.09 -12.54,-5.39 -2.31,-2.53 -3.19,-4.84 -4.07,-9.68 z"
           id="path1013"
           inkscape:connector-curvature="0" /><path
           d="m -1854.2645,510.87774 c -8.36,5.72 -12.21,8.03 -13.64,8.03 -1.21,0 -2.09,-1.54 -2.09,-3.63 0,-2.53 0.88,-6.93 2.75,-13.97 1.1,-4.18 2.2,-8.36 2.31,-9.02 0.99,-4.18 1.76,-6.93 1.98,-7.7 0.33,-1.21 0.55,-2.31 0.55,-2.97 0,-0.88 -0.55,-1.43 -1.32,-1.43 -1.1,0 -9.02,4.29 -17.05,9.24 l -0.77,2.97 c 4.73,-2.42 6.71,-3.19 8.03,-3.19 0.88,0 1.54,0.77 1.54,2.09 0,1.54 -0.99,5.83 -3.08,13.64 -2.75,10.34 -3.41,13.31 -3.41,16.5 0,3.08 1.32,5.39 3.08,5.39 1.65,0 3.52,-0.99 9.13,-4.62 8.58,-5.5 8.58,-5.5 11.33,-7.37 -0.99,3.74 -1.54,7.48 -1.54,9.46 0,1.54 0.77,2.53 1.98,2.53 2.2,0 12.54,-6.05 20.13,-11.77 l 0.77,-3.3 c -7.81,4.62 -11.44,6.6 -12.65,6.6 -0.77,0 -1.21,-0.77 -1.21,-2.64 0,-5.61 3.96,-21.89 8.8,-35.97 -1.43,0.77 -2.42,1.32 -2.86,1.54 -1.32,0.66 -2.64,1.32 -4.07,1.87 -0.33,0.22 -0.99,0.55 -2.2,1.21 -0.77,2.75 -2.53,10.12 -5.39,22.11 z"
           id="path1015"
           inkscape:connector-curvature="0" /><path
           d="m -1835.1313,516.26774 c -0.11,0.99 -0.22,1.87 -0.22,2.53 0,4.84 3.3,8.03 8.14,8.03 3.52,0 8.14,-1.32 11.66,-3.41 6.6,-3.74 10.45,-9.35 10.45,-14.85 0,-4.07 -0.66,-4.95 -6.93,-8.8 -3.74,-2.42 -5.28,-4.51 -5.28,-7.37 0,-3.74 3.19,-7.04 6.93,-7.04 2.53,0 4.51,1.21 6.82,4.29 3.74,-3.63 3.74,-3.63 5.17,-5.72 -2.2,-2.64 -4.29,-3.74 -7.37,-3.74 -8.03,0 -18.37,9.46 -18.37,16.83 0,3.41 1.76,6.05 5.94,9.02 5.5,3.85 6.27,4.84 6.27,7.59 0,3.96 -5.06,8.58 -9.35,8.58 -2.42,0 -4.29,-1.32 -5.39,-3.74 -0.77,-1.65 -0.99,-3.3 -1.1,-7.15 -1.21,0.99 -2.09,1.54 -2.53,1.87 -0.88,0.55 -1.87,1.1 -2.86,1.76 -0.11,0 -1.1,0.77 -1.98,1.32 z"
           id="path1017"
           inkscape:connector-curvature="0" /><path
           d="m -1803.496,548.82774 -3.3,3.52 c 1.98,0.11 3.3,0.11 3.74,0.11 l 7.92,0.11 7.04,0.11 c 0.88,0 2.42,0 5.17,-0.11 l 3.41,-2.75 -12.32,-0.66 c 1.43,-6.71 2.09,-9.9 2.53,-11.66 0.55,-2.31 0.99,-4.62 1.54,-7.04 l 1.21,-4.73 c 2.2,0.44 3.41,0.55 5.28,0.55 6.05,0 7.26,-0.55 15.84,-7.7 3.74,-2.97 5.06,-4.51 6.71,-7.7 3.52,-7.15 5.83,-15.73 5.83,-22 0,-5.28 -2.31,-8.69 -5.94,-8.69 -2.64,0 -6.38,1.65 -10.89,4.95 -4.84,3.52 -7.81,5.72 -9.02,6.49 1.54,-6.49 2.31,-9.79 2.31,-10.01 0,-0.66 -0.77,-1.43 -1.54,-1.43 -1.1,0 -10.01,4.73 -18.15,9.57 l -0.66,2.86 c 0.77,-0.33 2.31,-0.99 4.51,-1.87 2.09,-0.99 2.53,-1.1 3.41,-1.1 1.32,0 2.09,1.1 2.09,3.08 0,3.96 -6.49,32.23 -12.76,55.88 z m 19.58,-34.21 1.65,-7.48 1.65,-7.15 c 0.11,-0.55 0.44,-1.98 0.88,-3.96 8.91,-6.6 12.43,-8.47 15.29,-8.47 2.2,0 3.63,2.31 3.63,6.05 0,4.95 -1.54,11.22 -4.29,17.16 -2.97,6.6 -6.71,9.79 -11.22,9.79 -2.75,0 -5.72,-0.88 -8.36,-2.42 z"
           id="path1019"
           inkscape:connector-curvature="0" /><path
           d="m -1715.7762,510.32774 c -8.8,7.48 -13.53,10.23 -17.71,10.23 -2.86,0 -5.06,-1.87 -5.83,-4.73 -0.44,-1.76 -0.55,-2.97 -0.55,-6.16 5.06,-3.19 8.14,-5.39 14.63,-10.23 6.05,-4.51 8.25,-8.14 8.25,-13.09 0,-3.85 -2.31,-6.16 -6.27,-6.16 -2.42,0 -4.07,0.55 -6.71,1.98 -4.18,2.42 -7.92,5.39 -10.12,8.03 -4.18,5.06 -7.92,17.16 -7.92,26.07 0,6.49 3.41,10.56 9.02,10.56 6.49,0 14.85,-4.84 23.1,-13.31 z m -23.76,-4.62 c 1.87,-11.88 6.82,-20.9 11.66,-20.9 1.76,0 2.97,1.76 2.97,4.51 0,5.5 -3.19,9.02 -14.63,16.39 z"
           id="path1021"
           inkscape:connector-curvature="0" /><path
           d="m -1702.1534,523.30774 6.49,-25.85 2.75,-1.76 c 10.23,-6.38 11.44,-7.04 12.98,-7.04 0.66,0 1.1,0.55 1.1,1.43 0,1.76 -0.77,4.95 -4.07,18.37 -2.42,9.68 -2.86,11.66 -2.86,13.75 0,1.54 0.44,2.86 1.65,4.95 4.95,-2.2 12.65,-7.04 20.35,-12.76 l 0.77,-3.08 c -10.67,6.16 -11.44,6.49 -12.54,6.49 -1.1,0 -1.76,-1.1 -1.76,-2.97 0,-2.97 0.44,-4.84 5.28,-22.33 2.75,-9.79 2.75,-9.79 2.75,-10.45 0,-1.21 -0.77,-1.87 -2.09,-1.87 -2.42,0 -2.75,0.22 -14.63,7.48 -4.4,2.75 -7.26,4.51 -8.58,5.39 1.1,-3.85 2.64,-10.56 2.64,-11.44 0,-0.88 -0.55,-1.43 -1.43,-1.43 -1.21,0 -8.69,3.85 -17.27,8.91 l -0.66,2.86 c 7.04,-3.19 7.48,-3.3 8.47,-3.3 0.77,0 1.32,0.66 1.32,1.54 0,2.42 -1.98,11.22 -4.84,21.45 l -2.53,8.91 c -0.22,0.77 -0.77,2.86 -1.54,5.94 z"
           id="path1023"
           inkscape:connector-curvature="0" /><path
           d="m -1614.8202,510.98774 -3.08,1.98 c -2.75,1.87 -4.62,3.19 -5.17,3.52 -2.31,1.43 -4.4,2.42 -4.95,2.42 -0.88,0 -1.54,-1.21 -1.54,-2.86 0,-3.63 9.13,-43.45 11.55,-50.27 2.42,-6.6 4.84,-9.13 8.8,-9.13 1.54,0 2.53,0.22 5.06,0.88 l 3.85,-6.16 c -1.65,-0.33 -2.42,-0.44 -3.52,-0.44 -2.64,0 -4.18,0.44 -6.6,1.87 -2.75,1.54 -6.49,4.4 -9.57,7.26 -5.39,5.17 -5.72,5.94 -8.58,17.27 -0.11,0.44 -0.44,1.98 -0.88,3.52 -1.98,-0.44 -3.52,-0.66 -4.51,-0.66 -3.41,0 -12.87,5.94 -17.27,10.78 -3.74,4.29 -8.69,19.8 -8.69,27.39 0,4.18 2.2,8.47 4.18,8.47 2.09,0 7.15,-3.08 18.48,-11.33 -0.55,2.97 -0.88,5.83 -0.88,7.92 0,2.2 0.77,3.41 2.42,3.41 1.76,0 11.33,-5.83 20.46,-12.43 z m -21.56,0.44 c -9.35,6.6 -11.77,8.03 -13.31,8.03 -1.54,0 -2.31,-1.54 -2.31,-4.84 0,-3.63 0.66,-7.7 1.98,-12.65 3.08,-11.11 7.48,-16.61 13.09,-16.61 2.09,0 3.52,0.77 5.72,2.97 z"
           id="path1025"
           inkscape:connector-curvature="0" /><path
           d="m -1591.1204,457.63774 c -3.08,2.42 -5.61,4.4 -7.59,5.72 0.77,2.31 1.76,4.18 4.18,7.7 3.08,-2.75 3.41,-3.08 7.15,-5.94 -0.33,-0.66 -0.55,-1.1 -1.43,-2.53 -0.66,-1.32 -0.77,-1.32 -1.65,-3.52 z m 4.18,55 -1.87,0.99 c -7.59,4.18 -8.91,4.73 -10.23,4.73 -1.21,0 -1.98,-1.21 -1.98,-3.08 0,-1.87 0,-1.87 3.63,-16.39 4.07,-16.72 4.07,-16.72 4.07,-17.6 0,-0.66 -0.55,-1.1 -1.32,-1.1 -1.87,0 -8.36,3.63 -17.38,9.68 l -0.22,3.08 c 6.71,-3.63 7.04,-3.74 8.03,-3.74 0.88,0 1.32,0.66 1.32,1.87 0,1.54 -0.33,3.08 -1.98,9.35 -5.17,19.14 -5.17,19.14 -5.17,22 0,2.64 0.99,4.4 2.64,4.4 1.87,0 4.84,-1.43 10.67,-5.17 2.09,-1.32 4.18,-2.64 6.27,-4.07 0.99,-0.55 1.76,-1.1 3.08,-1.87 z"
           id="path1027"
           inkscape:connector-curvature="0" /><path
           d="m -1589.9946,516.26774 c -0.11,0.99 -0.22,1.87 -0.22,2.53 0,4.84 3.3,8.03 8.14,8.03 3.52,0 8.14,-1.32 11.66,-3.41 6.6,-3.74 10.45,-9.35 10.45,-14.85 0,-4.07 -0.66,-4.95 -6.93,-8.8 -3.74,-2.42 -5.28,-4.51 -5.28,-7.37 0,-3.74 3.19,-7.04 6.93,-7.04 2.53,0 4.51,1.21 6.82,4.29 3.74,-3.63 3.74,-3.63 5.17,-5.72 -2.2,-2.64 -4.29,-3.74 -7.37,-3.74 -8.03,0 -18.37,9.46 -18.37,16.83 0,3.41 1.76,6.05 5.94,9.02 5.5,3.85 6.27,4.84 6.27,7.59 0,3.96 -5.06,8.58 -9.35,8.58 -2.42,0 -4.29,-1.32 -5.39,-3.74 -0.77,-1.65 -0.99,-3.3 -1.1,-7.15 -1.21,0.99 -2.09,1.54 -2.53,1.87 -0.88,0.55 -1.87,1.1 -2.86,1.76 -0.11,0 -1.1,0.77 -1.98,1.32 z"
           id="path1029"
           inkscape:connector-curvature="0" /><path
           d="m -1556.0493,516.26774 c -0.11,0.99 -0.22,1.87 -0.22,2.53 0,4.84 3.3,8.03 8.14,8.03 3.52,0 8.14,-1.32 11.66,-3.41 6.6,-3.74 10.45,-9.35 10.45,-14.85 0,-4.07 -0.66,-4.95 -6.93,-8.8 -3.74,-2.42 -5.28,-4.51 -5.28,-7.37 0,-3.74 3.19,-7.04 6.93,-7.04 2.53,0 4.51,1.21 6.82,4.29 3.74,-3.63 3.74,-3.63 5.17,-5.72 -2.2,-2.64 -4.29,-3.74 -7.37,-3.74 -8.03,0 -18.37,9.46 -18.37,16.83 0,3.41 1.76,6.05 5.94,9.02 5.5,3.85 6.27,4.84 6.27,7.59 0,3.96 -5.06,8.58 -9.35,8.58 -2.42,0 -4.29,-1.32 -5.39,-3.74 -0.77,-1.65 -0.99,-3.3 -1.1,-7.15 -1.21,0.99 -2.09,1.54 -2.53,1.87 -0.88,0.55 -1.87,1.1 -2.86,1.76 -0.11,0 -1.1,0.77 -1.98,1.32 z"
           id="path1031"
           inkscape:connector-curvature="0" /><path
           d="m -1483.7449,510.32774 c -8.8,7.48 -13.53,10.23 -17.71,10.23 -2.86,0 -5.06,-1.87 -5.83,-4.73 -0.44,-1.76 -0.55,-2.97 -0.55,-6.16 5.06,-3.19 8.14,-5.39 14.63,-10.23 6.05,-4.51 8.25,-8.14 8.25,-13.09 0,-3.85 -2.31,-6.16 -6.27,-6.16 -2.42,0 -4.07,0.55 -6.71,1.98 -4.18,2.42 -7.92,5.39 -10.12,8.03 -4.18,5.06 -7.92,17.16 -7.92,26.07 0,6.49 3.41,10.56 9.02,10.56 6.49,0 14.85,-4.84 23.1,-13.31 z m -23.76,-4.62 c 1.87,-11.88 6.82,-20.9 11.66,-20.9 1.76,0 2.97,1.76 2.97,4.51 0,5.5 -3.19,9.02 -14.63,16.39 z"
           id="path1033"
           inkscape:connector-curvature="0" /><path
           d="m -1907.4976,643.20774 c -2.31,1.32 -2.31,1.32 -7.04,4.29 -3.19,1.98 -5.06,2.86 -6.27,2.86 -1.1,0 -1.98,-1.32 -1.98,-2.86 v -0.99 -0.99 c 0,-1.98 4.95,-23.32 9.02,-38.83 4.29,-16.28 5.28,-18.15 10.12,-18.15 1.65,0 2.75,0.11 5.39,0.77 l 4.73,-5.83 c -2.31,-0.55 -3.41,-0.66 -4.95,-0.66 -4.4,0 -7.81,1.65 -13.2,6.49 -4.84,4.29 -6.05,6.05 -7.48,10.01 -0.88,2.64 -3.3,11.55 -4.4,16.39 l -7.92,34.43 c -0.11,0.66 -0.22,1.32 -0.22,1.98 0,3.41 1.87,6.71 3.63,6.71 h 0.66 0.33 c 0.66,0.33 4.18,-2.09 19.58,-13.2 z"
           id="path1035"
           inkscape:connector-curvature="0" /><path
           d="m -1873.0418,642.32774 c -8.8,7.48 -13.53,10.23 -17.71,10.23 -2.86,0 -5.06,-1.87 -5.83,-4.73 -0.44,-1.76 -0.55,-2.97 -0.55,-6.16 5.06,-3.19 8.14,-5.39 14.63,-10.23 6.05,-4.51 8.25,-8.14 8.25,-13.09 0,-3.85 -2.31,-6.16 -6.27,-6.16 -2.42,0 -4.07,0.55 -6.71,1.98 -4.18,2.42 -7.92,5.39 -10.12,8.03 -4.18,5.06 -7.92,17.16 -7.92,26.07 0,6.49 3.41,10.56 9.02,10.56 6.49,0 14.85,-4.84 23.1,-13.31 z m -23.76,-4.62 c 1.87,-11.88 6.82,-20.9 11.66,-20.9 1.76,0 2.97,1.76 2.97,4.51 0,5.5 -3.19,9.02 -14.63,16.39 z"
           id="path1037"
           inkscape:connector-curvature="0" /><path
           d="m -1835.329,643.42774 c -8.36,6.05 -14.3,9.13 -17.82,9.13 -3.96,0 -6.27,-3.08 -6.27,-8.36 0,-5.39 1.32,-12.32 3.41,-17.49 2.31,-5.83 5.06,-8.8 8.25,-8.8 2.64,0 4.07,2.09 4.62,6.93 l 6.38,-3.74 c 0.11,-0.55 0.11,-1.1 0.11,-1.32 0,-4.73 -2.42,-7.59 -6.27,-7.59 -2.09,0 -3.08,0.44 -7.15,3.08 -8.25,5.17 -10.01,6.82 -12.43,11.33 -3.08,5.94 -5.39,15.29 -5.39,22.11 0,6.49 2.86,10.12 8.03,10.12 5.28,0 14.08,-4.29 24.31,-11.88 z"
           id="path1039"
           inkscape:connector-curvature="0" /><path
           d="m -1801.2204,643.53774 c -8.36,5.06 -11.88,6.82 -13.42,6.82 -1.43,0 -3.19,-2.75 -3.19,-5.17 0,-1.54 0.11,-1.87 2.53,-12.32 0.55,-1.98 0.99,-4.07 1.43,-6.16 0.11,-0.33 0.55,-2.09 0.77,-3.08 3.74,-0.11 7.15,-0.33 10.89,-0.55 l 4.18,-3.19 h -14.08 c 0.55,-2.53 0.77,-3.3 1.1,-4.95 0.33,-1.1 1.1,-4.07 2.64,-10.01 l 0.66,-2.86 -1.87,0.99 c -0.66,0.22 -1.54,0.66 -2.75,1.21 -0.77,0.44 -1.65,0.77 -2.53,1.21 -0.44,0.22 -0.88,0.44 -1.54,0.66 l -0.99,4.51 -1.21,5.28 -0.88,3.96 c -0.99,0.11 -1.65,0.11 -1.98,0.11 h -2.64 c -0.22,0 -0.77,0 -1.65,0.11 -0.55,0.33 -0.99,0.66 -1.1,0.66 -0.33,0.22 -0.99,0.77 -2.09,1.65 -0.22,0.11 -0.77,0.66 -1.65,1.21 h 2.64 5.06 2.42 l -1.1,4.84 c -4.73,19.47 -4.73,19.47 -4.73,22.99 0,3.52 2.31,7.37 4.4,7.37 2.42,0 9.9,-4.51 20.46,-12.54 z"
           id="path1041"
           inkscape:connector-curvature="0" /><path
           d="m -1768.5418,642.87774 c -8.36,5.72 -12.21,8.03 -13.64,8.03 -1.21,0 -2.09,-1.54 -2.09,-3.63 0,-2.53 0.88,-6.93 2.75,-13.97 1.1,-4.18 2.2,-8.36 2.31,-9.02 0.99,-4.18 1.76,-6.93 1.98,-7.7 0.33,-1.21 0.55,-2.31 0.55,-2.97 0,-0.88 -0.55,-1.43 -1.32,-1.43 -1.1,0 -9.02,4.29 -17.05,9.24 l -0.77,2.97 c 4.73,-2.42 6.71,-3.19 8.03,-3.19 0.88,0 1.54,0.77 1.54,2.09 0,1.54 -0.99,5.83 -3.08,13.64 -2.75,10.34 -3.41,13.31 -3.41,16.5 0,3.08 1.32,5.39 3.08,5.39 1.65,0 3.52,-0.99 9.13,-4.62 8.58,-5.5 8.58,-5.5 11.33,-7.37 -0.99,3.74 -1.54,7.48 -1.54,9.46 0,1.54 0.77,2.53 1.98,2.53 2.2,0 12.54,-6.05 20.13,-11.77 l 0.77,-3.3 c -7.81,4.62 -11.44,6.6 -12.65,6.6 -0.77,0 -1.21,-0.77 -1.21,-2.64 0,-5.61 3.96,-21.89 8.8,-35.97 -1.43,0.77 -2.42,1.32 -2.86,1.54 -1.32,0.66 -2.64,1.32 -4.07,1.87 -0.33,0.22 -0.99,0.55 -2.2,1.21 -0.77,2.75 -2.53,10.12 -5.39,22.11 z"
           id="path1043"
           inkscape:connector-curvature="0" /><path
           d="m -1749.4087,648.26774 c -0.11,0.99 -0.22,1.87 -0.22,2.53 0,4.84 3.3,8.03 8.14,8.03 3.52,0 8.14,-1.32 11.66,-3.41 6.6,-3.74 10.45,-9.35 10.45,-14.85 0,-4.07 -0.66,-4.95 -6.93,-8.8 -3.74,-2.42 -5.28,-4.51 -5.28,-7.37 0,-3.74 3.19,-7.04 6.93,-7.04 2.53,0 4.51,1.21 6.82,4.29 3.74,-3.63 3.74,-3.63 5.17,-5.72 -2.2,-2.64 -4.29,-3.74 -7.37,-3.74 -8.03,0 -18.37,9.46 -18.37,16.83 0,3.41 1.76,6.05 5.94,9.02 5.5,3.85 6.27,4.84 6.27,7.59 0,3.96 -5.06,8.58 -9.35,8.58 -2.42,0 -4.29,-1.32 -5.39,-3.74 -0.77,-1.65 -0.99,-3.3 -1.1,-7.15 -1.21,0.99 -2.09,1.54 -2.53,1.87 -0.88,0.55 -1.87,1.1 -2.86,1.76 -0.11,0 -1.1,0.77 -1.98,1.32 z"
           id="path1045"
           inkscape:connector-curvature="0" /><path
           d="m -1608.3624,642.98774 c -8.03,5.5 -9.9,6.6 -11,6.6 -0.77,0 -1.32,-0.88 -1.32,-2.2 0,-2.97 2.53,-14.52 6.6,-29.59 1.21,-1.76 1.43,-1.98 3.19,-3.96 -5.28,-1.21 -9.02,-1.65 -13.86,-1.65 -4.51,0 -6.71,0.44 -9.46,2.2 -3.96,2.31 -8.58,5.72 -10.01,7.26 -4.18,4.62 -8.69,19.47 -8.69,28.38 0,5.28 1.76,8.8 4.51,8.8 2.42,0 6.05,-2.2 19.8,-12.1 -1.21,5.61 -1.65,8.36 -1.65,9.79 0,1.54 0.66,2.31 1.76,2.31 1.43,0 2.31,-0.44 10.12,-5.61 3.74,-2.53 5.83,-3.96 9.9,-6.93 z m -19.36,-0.77 c -3.85,2.86 -5.83,4.29 -5.94,4.4 -3.63,2.31 -6.49,3.74 -7.92,3.74 -1.87,0 -2.86,-1.98 -2.86,-5.5 0,-5.61 1.65,-12.87 4.51,-19.25 2.64,-6.05 5.06,-8.36 8.8,-8.36 1.98,0 5.72,0.55 9.35,1.43 -2.2,7.92 -2.97,10.89 -3.08,11.44 -0.66,2.75 -1.21,5.5 -1.87,8.36 -0.11,0.55 -0.44,1.87 -0.99,3.74 z"
           id="path1047"
           inkscape:connector-curvature="0" /><path
           d="m -1576.361,643.53774 c -8.36,5.06 -11.88,6.82 -13.42,6.82 -1.43,0 -3.19,-2.75 -3.19,-5.17 0,-1.54 0.11,-1.87 2.53,-12.32 0.55,-1.98 0.99,-4.07 1.43,-6.16 0.11,-0.33 0.55,-2.09 0.77,-3.08 3.74,-0.11 7.15,-0.33 10.89,-0.55 l 4.18,-3.19 h -14.08 c 0.55,-2.53 0.77,-3.3 1.1,-4.95 0.33,-1.1 1.1,-4.07 2.64,-10.01 l 0.66,-2.86 -1.87,0.99 c -0.66,0.22 -1.54,0.66 -2.75,1.21 -0.77,0.44 -1.65,0.77 -2.53,1.21 -0.44,0.22 -0.88,0.44 -1.54,0.66 l -0.99,4.51 -1.21,5.28 -0.88,3.96 c -0.99,0.11 -1.65,0.11 -1.98,0.11 h -2.64 c -0.22,0 -0.77,0 -1.65,0.11 -0.55,0.33 -0.99,0.66 -1.1,0.66 -0.33,0.22 -0.99,0.77 -2.09,1.65 -0.22,0.11 -0.77,0.66 -1.65,1.21 h 2.64 5.06 2.42 l -1.1,4.84 c -4.73,19.47 -4.73,19.47 -4.73,22.99 0,3.52 2.31,7.37 4.4,7.37 2.42,0 9.9,-4.51 20.46,-12.54 z"
           id="path1049"
           inkscape:connector-curvature="0" /><path
           d="m -1538.6121,642.32774 c -8.8,7.48 -13.53,10.23 -17.71,10.23 -2.86,0 -5.06,-1.87 -5.83,-4.73 -0.44,-1.76 -0.55,-2.97 -0.55,-6.16 5.06,-3.19 8.14,-5.39 14.63,-10.23 6.05,-4.51 8.25,-8.14 8.25,-13.09 0,-3.85 -2.31,-6.16 -6.27,-6.16 -2.42,0 -4.07,0.55 -6.71,1.98 -4.18,2.42 -7.92,5.39 -10.12,8.03 -4.18,5.06 -7.92,17.16 -7.92,26.07 0,6.49 3.41,10.56 9.02,10.56 6.49,0 14.85,-4.84 23.1,-13.31 z m -23.76,-4.62 c 1.87,-11.88 6.82,-20.9 11.66,-20.9 1.76,0 2.97,1.76 2.97,4.51 0,5.5 -3.19,9.02 -14.63,16.39 z"
           id="path1051"
           inkscape:connector-curvature="0" /><path
           d="m -1446.6774,643.53774 c -8.36,5.06 -11.88,6.82 -13.42,6.82 -1.43,0 -3.19,-2.75 -3.19,-5.17 0,-1.54 0.11,-1.87 2.53,-12.32 0.55,-1.98 0.99,-4.07 1.43,-6.16 0.11,-0.33 0.55,-2.09 0.77,-3.08 3.74,-0.11 7.15,-0.33 10.89,-0.55 l 4.18,-3.19 h -14.08 c 0.55,-2.53 0.77,-3.3 1.1,-4.95 0.33,-1.1 1.1,-4.07 2.64,-10.01 l 0.66,-2.86 -1.87,0.99 c -0.66,0.22 -1.54,0.66 -2.75,1.21 -0.77,0.44 -1.65,0.77 -2.53,1.21 -0.44,0.22 -0.88,0.44 -1.54,0.66 l -0.99,4.51 -1.21,5.28 -0.88,3.96 c -0.99,0.11 -1.65,0.11 -1.98,0.11 h -2.64 c -0.22,0 -0.77,0 -1.65,0.11 -0.55,0.33 -0.99,0.66 -1.1,0.66 -0.33,0.22 -0.99,0.77 -2.09,1.65 -0.22,0.11 -0.77,0.66 -1.65,1.21 h 2.64 5.06 2.42 l -1.1,4.84 c -4.73,19.47 -4.73,19.47 -4.73,22.99 0,3.52 2.31,7.37 4.4,7.37 2.42,0 9.9,-4.51 20.46,-12.54 z"
           id="path1053"
           inkscape:connector-curvature="0" /><path
           d="m -1411.6682,612.18774 c -4.4,0 -11.44,3.19 -17.93,8.03 -7.04,5.28 -11.99,16.72 -11.99,27.72 0,6.6 3.74,10.89 9.57,10.89 3.08,0 6.27,-1.1 11.22,-3.74 5.5,-3.08 9.13,-5.83 11.11,-8.36 4.4,-6.05 7.92,-16.83 7.92,-24.42 0,-5.94 -4.07,-10.12 -9.9,-10.12 z m -5.72,5.17 c 4.4,0 7.15,4.18 7.15,10.89 0,4.73 -1.54,10.34 -4.18,15.73 -3.19,6.27 -7.15,9.68 -11.33,9.68 -4.51,0 -7.37,-4.07 -7.37,-10.34 0,-12.76 8.03,-25.96 15.73,-25.96 z"
           id="path1055"
           inkscape:connector-curvature="0" /><path
           d="m -1397.2152,658.49774 8.47,-3.19 8.25,-31.35 c 3.74,-2.86 6.27,-3.85 9.24,-3.85 2.42,0 3.85,0.88 5.83,3.41 l 3.3,-10.45 c -1.98,-0.66 -2.97,-0.88 -4.07,-0.88 -2.09,0 -4.29,0.99 -7.26,3.08 -1.43,1.1 -2.86,2.2 -4.4,3.19 -0.66,0.55 -1.43,1.1 -2.09,1.54 l 1.32,-6.6 c 0,-0.66 -0.66,-1.21 -1.43,-1.21 -1.43,0 -11.11,4.73 -17.82,8.69 l -0.33,2.97 c 6.38,-3.08 6.49,-3.19 7.92,-3.19 1.43,0 2.09,0.77 2.09,2.31 0,1.54 -1.1,6.6 -2.42,11.44 z"
           id="path1057"
           inkscape:connector-curvature="0" /><path
           d="m -1332.8102,643.53774 c -8.36,5.06 -11.88,6.82 -13.42,6.82 -1.43,0 -3.19,-2.75 -3.19,-5.17 0,-1.54 0.11,-1.87 2.53,-12.32 0.55,-1.98 0.99,-4.07 1.43,-6.16 0.11,-0.33 0.55,-2.09 0.77,-3.08 3.74,-0.11 7.15,-0.33 10.89,-0.55 l 4.18,-3.19 h -14.08 c 0.55,-2.53 0.77,-3.3 1.1,-4.95 0.33,-1.1 1.1,-4.07 2.64,-10.01 l 0.66,-2.86 -1.87,0.99 c -0.66,0.22 -1.54,0.66 -2.75,1.21 -0.77,0.44 -1.65,0.77 -2.53,1.21 -0.44,0.22 -0.88,0.44 -1.54,0.66 l -0.99,4.51 -1.21,5.28 -0.88,3.96 c -0.99,0.11 -1.65,0.11 -1.98,0.11 h -2.64 c -0.22,0 -0.77,0 -1.65,0.11 -0.55,0.33 -0.99,0.66 -1.1,0.66 -0.33,0.22 -0.99,0.77 -2.09,1.65 -0.22,0.11 -0.77,0.66 -1.65,1.21 h 2.64 5.06 2.42 l -1.1,4.84 c -4.73,19.47 -4.73,19.47 -4.73,22.99 0,3.52 2.31,7.37 4.4,7.37 2.42,0 9.9,-4.51 20.46,-12.54 z"
           id="path1059"
           inkscape:connector-curvature="0" /><path
           d="m -1297.801,612.18774 c -4.4,0 -11.44,3.19 -17.93,8.03 -7.04,5.28 -11.99,16.72 -11.99,27.72 0,6.6 3.74,10.89 9.57,10.89 3.08,0 6.27,-1.1 11.22,-3.74 5.5,-3.08 9.13,-5.83 11.11,-8.36 4.4,-6.05 7.92,-16.83 7.92,-24.42 0,-5.94 -4.07,-10.12 -9.9,-10.12 z m -5.72,5.17 c 4.4,0 7.15,4.18 7.15,10.89 0,4.73 -1.54,10.34 -4.18,15.73 -3.19,6.27 -7.15,9.68 -11.33,9.68 -4.51,0 -7.37,-4.07 -7.37,-10.34 0,-12.76 8.03,-25.96 15.73,-25.96 z"
           id="path1061"
           inkscape:connector-curvature="0" /><path
           d="m -1283.348,658.49774 8.47,-3.19 8.25,-31.35 c 3.74,-2.86 6.27,-3.85 9.24,-3.85 2.42,0 3.85,0.88 5.83,3.41 l 3.3,-10.45 c -1.98,-0.66 -2.97,-0.88 -4.07,-0.88 -2.09,0 -4.29,0.99 -7.26,3.08 -1.43,1.1 -2.86,2.2 -4.4,3.19 -0.66,0.55 -1.43,1.1 -2.09,1.54 l 1.32,-6.6 c 0,-0.66 -0.66,-1.21 -1.43,-1.21 -1.43,0 -11.11,4.73 -17.82,8.69 l -0.33,2.97 c 6.38,-3.08 6.49,-3.19 7.92,-3.19 1.43,0 2.09,0.77 2.09,2.31 0,1.54 -1.1,6.6 -2.42,11.44 z"
           id="path1063"
           inkscape:connector-curvature="0" /><path
           d="m -1259.9077,668.17774 c 12.87,-11.11 14.85,-14.41 17.38,-29.81 -3.96,1.21 -4.07,1.32 -7.92,2.42 -0.99,12.32 -4.07,18.7 -12.43,26.18 z"
           id="path1065"
           inkscape:connector-curvature="0" /><path
           d="m -1886.5976,774.98774 -3.08,1.98 c -2.75,1.87 -4.62,3.19 -5.17,3.52 -2.31,1.43 -4.4,2.42 -4.95,2.42 -0.88,0 -1.54,-1.21 -1.54,-2.86 0,-3.63 9.13,-43.45 11.55,-50.27 2.42,-6.6 4.84,-9.13 8.8,-9.13 1.54,0 2.53,0.22 5.06,0.88 l 3.85,-6.16 c -1.65,-0.33 -2.42,-0.44 -3.52,-0.44 -2.64,0 -4.18,0.44 -6.6,1.87 -2.75,1.54 -6.49,4.4 -9.57,7.26 -5.39,5.17 -5.72,5.94 -8.58,17.27 -0.11,0.44 -0.44,1.98 -0.88,3.52 -1.98,-0.44 -3.52,-0.66 -4.51,-0.66 -3.41,0 -12.87,5.94 -17.27,10.78 -3.74,4.29 -8.69,19.8 -8.69,27.39 0,4.18 2.2,8.47 4.18,8.47 2.09,0 7.15,-3.08 18.48,-11.33 -0.55,2.97 -0.88,5.83 -0.88,7.92 0,2.2 0.77,3.41 2.42,3.41 1.76,0 11.33,-5.83 20.46,-12.43 z m -21.56,0.44 c -9.35,6.6 -11.77,8.03 -13.31,8.03 -1.54,0 -2.31,-1.54 -2.31,-4.84 0,-3.63 0.66,-7.7 1.98,-12.65 3.08,-11.11 7.48,-16.61 13.09,-16.61 2.09,0 3.52,0.77 5.72,2.97 z"
           id="path1067"
           inkscape:connector-curvature="0" /><path
           d="m -1862.8977,721.63774 c -3.08,2.42 -5.61,4.4 -7.59,5.72 0.77,2.31 1.76,4.18 4.18,7.7 3.08,-2.75 3.41,-3.08 7.15,-5.94 -0.33,-0.66 -0.55,-1.1 -1.43,-2.53 -0.66,-1.32 -0.77,-1.32 -1.65,-3.52 z m 4.18,55 -1.87,0.99 c -7.59,4.18 -8.91,4.73 -10.23,4.73 -1.21,0 -1.98,-1.21 -1.98,-3.08 0,-1.87 0,-1.87 3.63,-16.39 4.07,-16.72 4.07,-16.72 4.07,-17.6 0,-0.66 -0.55,-1.1 -1.32,-1.1 -1.87,0 -8.36,3.63 -17.38,9.68 l -0.22,3.08 c 6.71,-3.63 7.04,-3.74 8.03,-3.74 0.88,0 1.32,0.66 1.32,1.87 0,1.54 -0.33,3.08 -1.98,9.35 -5.17,19.14 -5.17,19.14 -5.17,22 0,2.64 0.99,4.4 2.64,4.4 1.87,0 4.84,-1.43 10.67,-5.17 2.09,-1.32 4.18,-2.64 6.27,-4.07 0.99,-0.55 1.76,-1.1 3.08,-1.87 z"
           id="path1069"
           inkscape:connector-curvature="0" /><path
           d="m -1821.7577,765.30774 c 0.44,-2.42 0.99,-4.51 1.43,-6.27 0.55,-2.09 1.1,-4.18 1.65,-6.16 l 0.55,-2.42 c 1.98,-0.55 2.09,-0.55 5.61,-6.16 -0.55,0 -1.98,0 -12.76,0.22 -6.71,0.11 -8.69,0.44 -11.88,2.42 -5.28,3.19 -9.02,6.38 -11.33,9.35 -3.3,4.4 -7.26,17.49 -7.26,24.31 0,2.75 0.66,4.73 2.42,7.15 -6.71,5.83 -8.69,7.48 -12.65,10.89 -5.5,4.84 -8.03,8.47 -8.03,11.55 0,4.07 4.73,6.38 13.2,6.38 10.12,0 18.04,-2.86 25.41,-9.24 4.73,-4.07 5.83,-6.38 8.14,-17.27 z m -14.41,30.14 c -1.43,6.71 -2.42,9.13 -4.4,11.22 -2.42,2.86 -6.93,4.18 -13.42,4.18 -7.15,0 -11,-1.87 -11,-5.5 0,-4.51 3.08,-7.26 33.55,-30.69 z m -8.36,-14.41 c -1.98,-1.98 -2.75,-3.74 -2.75,-6.38 0,-2.53 0.55,-5.28 2.53,-11.77 1.98,-6.6 3.52,-9.46 6.05,-11 1.98,-1.32 4.4,-1.54 15.4,-1.54 h 3.52 c -4.62,3.41 -5.17,3.85 -6.16,5.5 -0.88,1.43 -2.09,5.61 -4.51,14.85 -1.87,1.21 -2.2,1.54 -3.63,2.53 -2.64,1.87 -5.17,3.85 -7.59,5.72 z"
           id="path1071"
           inkscape:connector-curvature="0" /><path
           d="m -1803.3448,787.30774 6.49,-25.85 2.75,-1.76 c 10.23,-6.38 11.44,-7.04 12.98,-7.04 0.66,0 1.1,0.55 1.1,1.43 0,1.76 -0.77,4.95 -4.07,18.37 -2.42,9.68 -2.86,11.66 -2.86,13.75 0,1.54 0.44,2.86 1.65,4.95 4.95,-2.2 12.65,-7.04 20.35,-12.76 l 0.77,-3.08 c -10.67,6.16 -11.44,6.49 -12.54,6.49 -1.1,0 -1.76,-1.1 -1.76,-2.97 0,-2.97 0.44,-4.84 5.28,-22.33 2.75,-9.79 2.75,-9.79 2.75,-10.45 0,-1.21 -0.77,-1.87 -2.09,-1.87 -2.42,0 -2.75,0.22 -14.63,7.48 -4.4,2.75 -7.26,4.51 -8.58,5.39 1.1,-3.85 2.64,-10.56 2.64,-11.44 0,-0.88 -0.55,-1.43 -1.43,-1.43 -1.21,0 -8.69,3.85 -17.27,8.91 l -0.66,2.86 c 7.04,-3.19 7.48,-3.3 8.47,-3.3 0.77,0 1.32,0.66 1.32,1.54 0,2.42 -1.98,11.22 -4.84,21.45 l -2.53,8.91 c -0.22,0.77 -0.77,2.86 -1.54,5.94 z"
           id="path1073"
           inkscape:connector-curvature="0" /><path
           d="m -1740.6516,721.63774 c -3.08,2.42 -5.61,4.4 -7.59,5.72 0.77,2.31 1.76,4.18 4.18,7.7 3.08,-2.75 3.41,-3.08 7.15,-5.94 -0.33,-0.66 -0.55,-1.1 -1.43,-2.53 -0.66,-1.32 -0.77,-1.32 -1.65,-3.52 z m 4.18,55 -1.87,0.99 c -7.59,4.18 -8.91,4.73 -10.23,4.73 -1.21,0 -1.98,-1.21 -1.98,-3.08 0,-1.87 0,-1.87 3.63,-16.39 4.07,-16.72 4.07,-16.72 4.07,-17.6 0,-0.66 -0.55,-1.1 -1.32,-1.1 -1.87,0 -8.36,3.63 -17.38,9.68 l -0.22,3.08 c 6.71,-3.63 7.04,-3.74 8.03,-3.74 0.88,0 1.32,0.66 1.32,1.87 0,1.54 -0.33,3.08 -1.98,9.35 -5.17,19.14 -5.17,19.14 -5.17,22 0,2.64 0.99,4.4 2.64,4.4 1.87,0 4.84,-1.43 10.67,-5.17 2.09,-1.32 4.18,-2.64 6.27,-4.07 0.99,-0.55 1.76,-1.1 3.08,-1.87 z"
           id="path1075"
           inkscape:connector-curvature="0" /><path
           d="m -1739.5259,780.26774 c -0.11,0.99 -0.22,1.87 -0.22,2.53 0,4.84 3.3,8.03 8.14,8.03 3.52,0 8.14,-1.32 11.66,-3.41 6.6,-3.74 10.45,-9.35 10.45,-14.85 0,-4.07 -0.66,-4.95 -6.93,-8.8 -3.74,-2.42 -5.28,-4.51 -5.28,-7.37 0,-3.74 3.19,-7.04 6.93,-7.04 2.53,0 4.51,1.21 6.82,4.29 3.74,-3.63 3.74,-3.63 5.17,-5.72 -2.2,-2.64 -4.29,-3.74 -7.37,-3.74 -8.03,0 -18.37,9.46 -18.37,16.83 0,3.41 1.76,6.05 5.94,9.02 5.5,3.85 6.27,4.84 6.27,7.59 0,3.96 -5.06,8.58 -9.35,8.58 -2.42,0 -4.29,-1.32 -5.39,-3.74 -0.77,-1.65 -0.99,-3.3 -1.1,-7.15 -1.21,0.99 -2.09,1.54 -2.53,1.87 -0.88,0.55 -1.87,1.1 -2.86,1.76 -0.11,0 -1.1,0.77 -1.98,1.32 z"
           id="path1077"
           inkscape:connector-curvature="0" /><path
           d="m -1705.5805,780.26774 c -0.11,0.99 -0.22,1.87 -0.22,2.53 0,4.84 3.3,8.03 8.14,8.03 3.52,0 8.14,-1.32 11.66,-3.41 6.6,-3.74 10.45,-9.35 10.45,-14.85 0,-4.07 -0.66,-4.95 -6.93,-8.8 -3.74,-2.42 -5.28,-4.51 -5.28,-7.37 0,-3.74 3.19,-7.04 6.93,-7.04 2.53,0 4.51,1.21 6.82,4.29 3.74,-3.63 3.74,-3.63 5.17,-5.72 -2.2,-2.64 -4.29,-3.74 -7.37,-3.74 -8.03,0 -18.37,9.46 -18.37,16.83 0,3.41 1.76,6.05 5.94,9.02 5.5,3.85 6.27,4.84 6.27,7.59 0,3.96 -5.06,8.58 -9.35,8.58 -2.42,0 -4.29,-1.32 -5.39,-3.74 -0.77,-1.65 -0.99,-3.3 -1.1,-7.15 -1.21,0.99 -2.09,1.54 -2.53,1.87 -0.88,0.55 -1.87,1.1 -2.86,1.76 -0.11,0 -1.1,0.77 -1.98,1.32 z"
           id="path1079"
           inkscape:connector-curvature="0" /><path
           d="m -1645.0462,721.63774 c -3.08,2.42 -5.61,4.4 -7.59,5.72 0.77,2.31 1.76,4.18 4.18,7.7 3.08,-2.75 3.41,-3.08 7.15,-5.94 -0.33,-0.66 -0.55,-1.1 -1.43,-2.53 -0.66,-1.32 -0.77,-1.32 -1.65,-3.52 z m 4.18,55 -1.87,0.99 c -7.59,4.18 -8.91,4.73 -10.23,4.73 -1.21,0 -1.98,-1.21 -1.98,-3.08 0,-1.87 0,-1.87 3.63,-16.39 4.07,-16.72 4.07,-16.72 4.07,-17.6 0,-0.66 -0.55,-1.1 -1.32,-1.1 -1.87,0 -8.36,3.63 -17.38,9.68 l -0.22,3.08 c 6.71,-3.63 7.04,-3.74 8.03,-3.74 0.88,0 1.32,0.66 1.32,1.87 0,1.54 -0.33,3.08 -1.98,9.35 -5.17,19.14 -5.17,19.14 -5.17,22 0,2.64 0.99,4.4 2.64,4.4 1.87,0 4.84,-1.43 10.67,-5.17 2.09,-1.32 4.18,-2.64 6.27,-4.07 0.99,-0.55 1.76,-1.1 3.08,-1.87 z"
           id="path1081"
           inkscape:connector-curvature="0" /><path
           d="m -1638.5304,790.49774 7.81,-2.97 7.04,-26.73 c 7.15,-4.95 11.88,-7.59 13.31,-7.59 0.88,0 1.43,0.88 1.43,2.42 0,3.3 -4.18,19.91 -8.8,34.87 l 8.36,-2.97 6.82,-27.5 c 6.27,-4.07 12.21,-7.37 13.53,-7.37 0.99,0 1.43,0.77 1.43,2.09 0,2.42 -0.99,7.37 -3.96,18.7 -1.65,6.82 -2.2,9.57 -2.2,12.1 0,2.31 0.55,3.52 2.64,4.95 6.38,-3.19 12.54,-7.15 18.59,-11.99 l 0.11,-2.53 c -9.35,5.72 -9.35,5.72 -10.89,5.72 -1.21,0 -1.98,-1.1 -1.98,-2.86 0,-2.53 1.32,-8.36 3.63,-16.5 3.52,-12.21 4.18,-14.74 4.18,-16.5 0,-1.1 -0.55,-1.65 -1.76,-1.65 -1.98,0 -8.8,3.52 -22.22,11.44 0.44,-1.98 0.44,-1.98 1.43,-6.27 0.44,-1.65 0.77,-3.52 0.77,-3.96 0,-0.77 -0.55,-1.21 -1.43,-1.21 -1.87,0 -6.05,2.31 -21.89,12.32 1.76,-7.48 2.31,-10.01 2.31,-10.78 0,-0.99 -0.66,-1.54 -1.65,-1.54 -1.1,0 -2.31,0.66 -7.81,3.74 -7.26,4.18 -7.26,4.18 -9.24,5.5 l -0.77,3.08 c 5.83,-2.97 6.82,-3.3 8.14,-3.3 0.88,0 1.54,0.88 1.54,2.09 0,1.65 -0.33,3.08 -4.73,20.57 -0.99,3.52 -1.87,7.15 -2.75,10.78 z"
           id="path1083"
           inkscape:connector-curvature="0" /><path
           d="m -1481.8774,780.26774 c -0.11,0.99 -0.22,1.87 -0.22,2.53 0,4.84 3.3,8.03 8.14,8.03 3.52,0 8.14,-1.32 11.66,-3.41 6.6,-3.74 10.45,-9.35 10.45,-14.85 0,-4.07 -0.66,-4.95 -6.93,-8.8 -3.74,-2.42 -5.28,-4.51 -5.28,-7.37 0,-3.74 3.19,-7.04 6.93,-7.04 2.53,0 4.51,1.21 6.82,4.29 3.74,-3.63 3.74,-3.63 5.17,-5.72 -2.2,-2.64 -4.29,-3.74 -7.37,-3.74 -8.03,0 -18.37,9.46 -18.37,16.83 0,3.41 1.76,6.05 5.94,9.02 5.5,3.85 6.27,4.84 6.27,7.59 0,3.96 -5.06,8.58 -9.35,8.58 -2.42,0 -4.29,-1.32 -5.39,-3.74 -0.77,-1.65 -0.99,-3.3 -1.1,-7.15 -1.21,0.99 -2.09,1.54 -2.53,1.87 -0.88,0.55 -1.87,1.1 -2.86,1.76 -0.11,0 -1.1,0.77 -1.98,1.32 z"
           id="path1085"
           inkscape:connector-curvature="0" /><path
           d="m -1398.5421,774.98774 c -8.03,5.5 -9.9,6.6 -11,6.6 -0.77,0 -1.32,-0.88 -1.32,-2.2 0,-2.97 2.53,-14.52 6.6,-29.59 1.21,-1.76 1.43,-1.98 3.19,-3.96 -5.28,-1.21 -9.02,-1.65 -13.86,-1.65 -4.51,0 -6.71,0.44 -9.46,2.2 -3.96,2.31 -8.58,5.72 -10.01,7.26 -4.18,4.62 -8.69,19.47 -8.69,28.38 0,5.28 1.76,8.8 4.51,8.8 2.42,0 6.05,-2.2 19.8,-12.1 -1.21,5.61 -1.65,8.36 -1.65,9.79 0,1.54 0.66,2.31 1.76,2.31 1.43,0 2.31,-0.44 10.12,-5.61 3.74,-2.53 5.83,-3.96 9.9,-6.93 z m -19.36,-0.77 c -3.85,2.86 -5.83,4.29 -5.94,4.4 -3.63,2.31 -6.49,3.74 -7.92,3.74 -1.87,0 -2.86,-1.98 -2.86,-5.5 0,-5.61 1.65,-12.87 4.51,-19.25 2.64,-6.05 5.06,-8.36 8.8,-8.36 1.98,0 5.72,0.55 9.35,1.43 -2.2,7.92 -2.97,10.89 -3.08,11.44 -0.66,2.75 -1.21,5.5 -1.87,8.36 -0.11,0.55 -0.44,1.87 -0.99,3.74 z"
           id="path1087"
           inkscape:connector-curvature="0" /><path
           d="m -1396.3507,790.49774 7.81,-2.97 7.04,-26.73 c 7.15,-4.95 11.88,-7.59 13.31,-7.59 0.88,0 1.43,0.88 1.43,2.42 0,3.3 -4.18,19.91 -8.8,34.87 l 8.36,-2.97 6.82,-27.5 c 6.27,-4.07 12.21,-7.37 13.53,-7.37 0.99,0 1.43,0.77 1.43,2.09 0,2.42 -0.99,7.37 -3.96,18.7 -1.65,6.82 -2.2,9.57 -2.2,12.1 0,2.31 0.55,3.52 2.64,4.95 6.38,-3.19 12.54,-7.15 18.59,-11.99 l 0.11,-2.53 c -9.35,5.72 -9.35,5.72 -10.89,5.72 -1.21,0 -1.98,-1.1 -1.98,-2.86 0,-2.53 1.32,-8.36 3.63,-16.5 3.52,-12.21 4.18,-14.74 4.18,-16.5 0,-1.1 -0.55,-1.65 -1.76,-1.65 -1.98,0 -8.8,3.52 -22.22,11.44 0.44,-1.98 0.44,-1.98 1.43,-6.27 0.44,-1.65 0.77,-3.52 0.77,-3.96 0,-0.77 -0.55,-1.21 -1.43,-1.21 -1.87,0 -6.05,2.31 -21.89,12.32 1.76,-7.48 2.31,-10.01 2.31,-10.78 0,-0.99 -0.66,-1.54 -1.65,-1.54 -1.1,0 -2.31,0.66 -7.81,3.74 -7.26,4.18 -7.26,4.18 -9.24,5.5 l -0.77,3.08 c 5.83,-2.97 6.82,-3.3 8.14,-3.3 0.88,0 1.54,0.88 1.54,2.09 0,1.65 -0.33,3.08 -4.73,20.57 -0.99,3.52 -1.87,7.15 -2.75,10.78 z"
           id="path1089"
           inkscape:connector-curvature="0" /><path
           d="m -1296.5652,774.32774 c -8.8,7.48 -13.53,10.23 -17.71,10.23 -2.86,0 -5.06,-1.87 -5.83,-4.73 -0.44,-1.76 -0.55,-2.97 -0.55,-6.16 5.06,-3.19 8.14,-5.39 14.63,-10.23 6.05,-4.51 8.25,-8.14 8.25,-13.09 0,-3.85 -2.31,-6.16 -6.27,-6.16 -2.42,0 -4.07,0.55 -6.71,1.98 -4.18,2.42 -7.92,5.39 -10.12,8.03 -4.18,5.06 -7.92,17.16 -7.92,26.07 0,6.49 3.41,10.56 9.02,10.56 6.49,0 14.85,-4.84 23.1,-13.31 z m -23.76,-4.62 c 1.87,-11.88 6.82,-20.9 11.66,-20.9 1.76,0 2.97,1.76 2.97,4.51 0,5.5 -3.19,9.02 -14.63,16.39 z"
           id="path1091"
           inkscape:connector-curvature="0" /><path
           d="m -1262.1266,775.53774 c -8.36,5.06 -11.88,6.82 -13.42,6.82 -1.43,0 -3.19,-2.75 -3.19,-5.17 0,-1.54 0.11,-1.87 2.53,-12.32 0.55,-1.98 0.99,-4.07 1.43,-6.16 0.11,-0.33 0.55,-2.09 0.77,-3.08 3.74,-0.11 7.15,-0.33 10.89,-0.55 l 4.18,-3.19 h -14.08 c 0.55,-2.53 0.77,-3.3 1.1,-4.95 0.33,-1.1 1.1,-4.07 2.64,-10.01 l 0.66,-2.86 -1.87,0.99 c -0.66,0.22 -1.54,0.66 -2.75,1.21 -0.77,0.44 -1.65,0.77 -2.53,1.21 -0.44,0.22 -0.88,0.44 -1.54,0.66 l -0.99,4.51 -1.21,5.28 -0.88,3.96 c -0.99,0.11 -1.65,0.11 -1.98,0.11 h -2.64 c -0.22,0 -0.77,0 -1.65,0.11 -0.55,0.33 -0.99,0.66 -1.1,0.66 -0.33,0.22 -0.99,0.77 -2.09,1.65 -0.22,0.11 -0.77,0.66 -1.65,1.21 h 2.64 5.06 2.42 l -1.1,4.84 c -4.73,19.47 -4.73,19.47 -4.73,22.99 0,3.52 2.31,7.37 4.4,7.37 2.42,0 9.9,-4.51 20.46,-12.54 z"
           id="path1093"
           inkscape:connector-curvature="0" /><path
           d="m -1254.4077,781.91774 c 0.88,2.42 3.08,5.94 5.17,8.47 4.18,-3.08 5.17,-3.85 8.14,-6.93 -1.32,-1.87 -2.42,-3.63 -2.53,-3.74 -0.77,-1.21 -1.32,-2.09 -2.64,-4.4 -0.33,0.33 -0.88,0.77 -1.54,1.32 -0.88,0.66 -1.76,1.43 -2.64,2.2 -0.77,0.55 -1.43,1.1 -3.96,3.08 z"
           id="path1095"
           inkscape:connector-curvature="0" /></g></g><g
       transform="matrix(2.034047,0,0,2.034047,1834.8183,-4833.7125)"
       id="g4221"
       inkscape:export-filename="icon.png"
       inkscape:export-xdpi="101.43"
       inkscape:export-ydpi="101.43"
       inkscape:label="Manuskript logo"><circle
         style="color:#000000;display:none;overflow:visible;visibility:visible;opacity:1;fill:#808080;fill-opacity:1;fill-rule:nonzero;stroke:none;stroke-width:3;stroke-linecap:butt;stroke-linejoin:round;stroke-miterlimit:4;stroke-dasharray:none;stroke-dashoffset:0;stroke-opacity:1;marker:none;enable-background:accumulate"
         id="circle4223"
         cx="-888.60675"
         cy="2323.0908"
         r="246.47722" /><g
         transform="matrix(0.8063266,0,0,0.8063266,712.85019,2585.4146)"
         id="g4225"
         style="fill:#000000"><path
           style="opacity:1;fill:#ffffff;fill-rule:evenodd;stroke:none;stroke-width:1px;stroke-linecap:butt;stroke-linejoin:miter;stroke-opacity:1"
           d="m -1968.0071,234.19941 c 122.5885,-409.89341 419.7705,-496.33223 543.3523,-546.28847 -87.1102,267.642216 -199.3517,429.47405 -494.9851,522.42685 z"
           id="path908"
           inkscape:connector-curvature="0"
           sodipodi:nodetypes="cccc" /><path
           sodipodi:nodetypes="cccccccc"
           inkscape:connector-curvature="0"
           id="path4227"
           d="m -2005.3531,376.96865 c 66.8859,-553.16789 493.2081,-662.05224 609.7166,-718.07597 -87.1102,267.642221 -228.37,458.49231 -524.0034,551.44511 103.4822,-195.784379 261.9912,-326.08916 435.469,-459.88102 -148.4827,124.801 -297.0438,249.5153211 -393.871,431.44196 138.2913,-45.70146 419.6753,-307.72068 325.729,-313.41669 32.0063,-3.42141 70.1653,-26.69892 105.5059,-157.3018 -107.7232,39.11218 -425.5892,184.41539 -558.5461,665.78841 z"
           style="display:inline;opacity:1;fill:#000000;fill-rule:evenodd;stroke:none;stroke-width:1px;stroke-linecap:butt;stroke-linejoin:miter;stroke-opacity:1" /></g></g></g></svg>